<svg height="485pt" viewBox="-7 0 485 485.8" width="485pt" xmlns="http://www.w3.org/2000/svg" xmlns:xlink="http://www.w3.org/1999/xlink"><linearGradient id="a"><stop offset="0" stop-color="#00efd1"/><stop offset="1" stop-color="#00acea"/></linearGradient><linearGradient id="b" gradientTransform="matrix(1 0 0 -1 -20.216031 500.9)" gradientUnits="userSpaceOnUse" x1="254.991" x2="254.991" xlink:href="#a" y1="510" y2="7.936"/><linearGradient id="c" gradientTransform="matrix(1 0 0 -1 -20.216031 500.9)" gradientUnits="userSpaceOnUse" x1="91.425" x2="91.425" xlink:href="#a" y1="510" y2="7.936"/><linearGradient id="d" gradientTransform="matrix(1 0 0 -1 -20.216031 500.9)" gradientUnits="userSpaceOnUse" x1="257.808" x2="257.808" xlink:href="#a" y1="510" y2="7.936"/><linearGradient id="e" gradientTransform="matrix(1 0 0 -1 -20.216031 500.9)" gradientUnits="userSpaceOnUse" x1="420.574" x2="420.574" xlink:href="#a" y1="510" y2="7.936"/><linearGradient id="f" gradientTransform="matrix(1 0 0 -1 -20.216031 500.9)" gradientUnits="userSpaceOnUse" x1="256" x2="256" xlink:href="#a" y1="510" y2="7.936"/><linearGradient id="g" gradientTransform="matrix(1 0 0 -1 -20.216031 500.9)" gradientUnits="userSpaceOnUse" x1="255.999" x2="255.999" xlink:href="#a" y1="510" y2="7.936"/><linearGradient id="h" gradientTransform="matrix(1 0 0 -1 -20.216031 500.9)" gradientUnits="userSpaceOnUse" x1="306" x2="306" xlink:href="#a" y1="510" y2="7.936"/><linearGradient id="i" gradientTransform="matrix(1 0 0 -1 -20.216031 500.9)" gradientUnits="userSpaceOnUse" x1="205.999" x2="205.999" xlink:href="#a" y1="510" y2="7.936"/><linearGradient id="j" gradientTransform="matrix(1 0 0 -1 -20.216031 500.9)" gradientUnits="userSpaceOnUse" x1="206.001" x2="206.001" xlink:href="#a" y1="510" y2="7.936"/><path d="m70.199219 395.101562c19.804687-.023437 35.855469-16.074218 35.875-35.878906v-11.546875c-.019531-15.59375-10.09375-29.398437-24.9375-34.167969v-10.980468h147.664062v10.128906c-16.402343 3.667969-28.070312 18.210938-28.09375 35.019531v11.546875c0 19.816406 16.0625 35.878906 35.875 35.878906 19.816407 0 35.875-16.0625 35.875-35.878906v-11.546875c-.023437-17.40625-12.519531-32.289062-29.65625-35.328125v-9.820312h147.667969v10.382812c-15.871094 4.078125-26.976562 18.375-26.996094 34.761719v11.550781c0 19.8125 16.0625 35.875 35.875 35.875 19.816406 0 35.878906-16.0625 35.878906-35.875v-11.550781c-.027343-17.824219-13.117187-32.9375-30.757812-35.503906v-16.640625c0-3.867188-3.136719-7-7-7h-154.667969v-35.96875l18.140625 18.140625c2.730469 2.734375 7.164063 2.734375 9.898438 0s2.734375-7.164063 0-9.898438l-30-30c-2.734375-2.734375-7.167969-2.734375-9.898438 0l-30 30c-2.734375 2.734375-2.734375 7.164063 0 9.898438 2.730469 2.734375 7.164063 2.734375 9.898438 0l17.960937-17.960938v35.792969h-154.664062c-3.867188 0-7 3.132812-7 7v16.410156c-18.546875 1.609375-32.789063 17.117188-32.8125 35.730469v11.550781c.023437 19.804688 16.070312 35.855469 35.875 35.878906zm188.257812-47.429687v11.550781c0 12.082032-9.792969 21.875-21.875 21.875s-21.875-9.792968-21.875-21.875v-11.550781c0-12.082031 9.792969-21.875 21.875-21.875s21.875 9.792969 21.875 21.875zm162.765625 0v11.550781c0 12.082032-9.792968 21.875-21.875 21.875-12.082031 0-21.875-9.792968-21.875-21.875v-11.550781c0-12.082031 9.792969-21.875 21.875-21.875 12.082032 0 21.875 9.792969 21.875 21.875zm-372.898437 0c0-12.082031 9.792969-21.875 21.875-21.875s21.875 9.792969 21.875 21.875v11.550781c0 12.082032-9.792969 21.875-21.875 21.875s-21.875-9.792968-21.875-21.875zm0 0" fill="url(#b)"/><path d="m105.019531 401.660156h-7.292969c-1.683593 0-3.3125.605469-4.582031 1.710938l-21.851562 18.9375-20.984375-18.855469c-1.285156-1.15625-2.953125-1.792969-4.679688-1.792969h-8.222656c-10.398438 0-20.316406 4.371094-27.328125 12.050782-7.011719 7.679687-10.46875 17.953124-9.523437 28.308593v36.78125c0 3.863281 3.132812 7 7 7l127.308593-.015625c3.867188 0 7-3.132812 7-7v-36.765625c.945313-10.351562-2.511719-20.625-9.519531-28.304687-7.011719-7.679688-16.925781-12.054688-27.324219-12.054688zm22.882813 39.320313c-.023438.234375-.039063.46875-.039063.707031v30.097656l-113.308593.015625v-30.113281c0-.238281-.011719-.472656-.035157-.707031-.65625-6.472657 1.457031-12.917969 5.820313-17.746094 4.359375-4.824219 10.5625-7.574219 17.066406-7.574219h5.539062l23.585938 21.191406c2.625 2.359376 6.597656 2.394532 9.265625.082032l24.542969-21.273438h4.679687c6.503907 0 12.703125 2.753906 17.0625 7.578125s6.476563 11.269531 5.820313 17.742188zm0 0" fill="url(#c)"/><path d="m271.402344 401.660156h-7.292969c-1.683594 0-3.3125.605469-4.582031 1.710938l-21.851563 18.9375-20.984375-18.855469c-1.285156-1.15625-2.953125-1.792969-4.679687-1.792969h-8.222657c-10.398437-.003906-20.316406 4.371094-27.328124 12.050782-7.011719 7.679687-10.46875 17.953124-9.523438 28.308593v36.78125c0 3.863281 3.132812 7 7 7l127.308594-.015625c3.867187 0 7-3.132812 7-7v-36.765625c.945312-10.351562-2.511719-20.625-9.519532-28.304687-7.011718-7.679688-16.925781-12.054688-27.324218-12.054688zm22.882812 39.320313c-.023437.234375-.039062.46875-.039062.707031v30.097656l-113.308594.015625v-30.113281c0-.238281-.011719-.472656-.035156-.707031-.65625-6.472657 1.457031-12.917969 5.820312-17.746094 4.363282-4.824219 10.5625-7.574219 17.066406-7.574219h5.539063l23.585937 21.191406c2.625 2.359376 6.597657 2.394532 9.265626.082032l24.542968-21.273438h4.679688c6.503906 0 12.703125 2.753906 17.0625 7.578125s6.476562 11.269531 5.820312 17.742188zm0 0" fill="url(#d)"/><path d="m434.167969 401.660156h-7.289063c-1.683594 0-3.3125.605469-4.585937 1.710938l-21.851563 18.9375-20.984375-18.855469c-1.285156-1.15625-2.953125-1.792969-4.679687-1.792969h-8.222656c-10.398438-.003906-20.316407 4.371094-27.328126 12.050782-7.011718 7.679687-10.46875 17.953124-9.523437 28.308593v36.78125c0 3.863281 3.132813 7 7 7l127.308594-.015625c3.867187 0 7-3.132812 7-7v-36.765625c.945312-10.351562-2.511719-20.625-9.519531-28.304687-7.011719-7.679688-16.925782-12.054688-27.324219-12.054688zm22.882812 39.320313c-.023437.234375-.035156.46875-.035156.707031v30.097656l-113.3125.015625v-30.113281c0-.238281-.011719-.472656-.035156-.707031-.65625-6.472657 1.460937-12.917969 5.820312-17.742188 4.363281-4.824219 10.5625-7.578125 17.066407-7.578125h5.539062l23.589844 21.191406c2.625 2.359376 6.597656 2.394532 9.265625.082032l24.542969-21.273438h4.679687c6.503906 0 12.703125 2.753906 17.0625 7.578125 4.363281 4.824219 6.476563 11.269531 5.820313 17.742188zm0 0" fill="url(#e)"/><path d="m155.785156 220.601562h160c3.863282 0 7-3.136718 7-7v-180.34375c0-3.867187-3.136718-7-7-7h-17.546875v-19.257812c0-3.867188-3.132812-7-7-7h-110.910156c-3.863281 0-7 3.132812-7 7v19.257812h-17.542969c-3.867187 0-7 3.136719-7 7v180.34375c0 3.863282 3.132813 7 7 7zm97.242188-14h-37.515625v-26.179687h37.515625zm-65.703125-192.601562h96.910156v12.257812h-96.90625v-12.257812zm-24.539063 26.257812h146v166.34375h-41.757812v-33.179687c0-3.867187-3.136719-7-7-7h-51.515625c-3.867188 0-7 3.132813-7 7v33.179687h-38.726563zm0 0" fill="url(#f)"/><path d="m226.726562 107.117188h18.117188c3.863281 0 7-3.132813 7-7 0-3.863282-3.136719-7-7-7h-18.117188c-3.867187 0-7 3.136718-7 7 0 3.867187 3.132813 7 7 7zm0 0" fill="url(#g)"/><path d="m226.726562 146.289062h18.117188c3.863281 0 7-3.132812 7-7 0-3.863281-3.136719-7-7-7h-18.117188c-3.867187 0-7 3.136719-7 7 0 3.867188 3.132813 7 7 7zm0 0" fill="url(#g)"/><path d="m276.726562 107.117188h18.117188c3.863281 0 7-3.132813 7-7 0-3.863282-3.136719-7-7-7h-18.117188c-3.867187 0-7 3.136718-7 7 0 3.867187 3.132813 7 7 7zm0 0" fill="url(#h)"/><path d="m276.726562 146.289062h18.117188c3.863281 0 7-3.132812 7-7 0-3.863281-3.136719-7-7-7h-18.117188c-3.867187 0-7 3.136719-7 7 0 3.867188 3.132813 7 7 7zm0 0" fill="url(#h)"/><path d="m176.726562 107.117188h18.117188c3.863281 0 7-3.132813 7-7 0-3.863282-3.136719-7-7-7h-18.117188c-3.867187 0-7 3.136718-7 7 0 3.867187 3.132813 7 7 7zm0 0" fill="url(#i)"/><path d="m201.84375 139.289062c0-3.863281-3.136719-7-7-7h-18.117188c-3.867187 0-7 3.136719-7 7 0 3.867188 3.132813 7 7 7h18.117188c3.863281 0 7-3.132812 7-7zm0 0" fill="url(#j)"/><path d="m226.726562 67.117188h18.117188c3.863281 0 7-3.132813 7-7 0-3.863282-3.136719-7-7-7h-18.117188c-3.867187 0-7 3.136718-7 7 0 3.867187 3.132813 7 7 7zm0 0" fill="url(#g)"/><path d="m276.726562 67.117188h18.117188c3.863281 0 7-3.132813 7-7 0-3.863282-3.136719-7-7-7h-18.117188c-3.867187 0-7 3.136718-7 7 0 3.867187 3.132813 7 7 7zm0 0" fill="url(#h)"/><path d="m176.726562 67.117188h18.117188c3.863281 0 7-3.132813 7-7 0-3.863282-3.136719-7-7-7h-18.117188c-3.867187 0-7 3.136718-7 7 0 3.867187 3.132813 7 7 7zm0 0" fill="url(#i)"/></svg>