<svg height="512pt" viewBox="-26 0 512 512.0008" width="512pt" xmlns="http://www.w3.org/2000/svg"><path d="m383.980469.0273438c-18.902344.0078124-37.132813 6.9960942-51.195313 19.6250002-29.105468-26.203125-73.292968-26.203125-102.394531 0-29.105469-26.203125-73.292969-26.203125-102.394531 0-31.519532-28.316406-80.027344-25.722656-108.34375 5.792968-12.675782 14.109376-19.6757815 32.410157-19.652344 51.378907-.0546875 15.199219 4.46875 30.066406 12.980469 42.664062-17.304688 25.808594-17.304688 59.515625 0 85.328125-8.511719 12.597656-13.0351565 27.460938-12.980469 42.664063-.0546875 42.371093 34.246094 76.765625 76.617188 76.820312 18.964843.027344 37.269531-6.972656 51.378906-19.648437 14.097656 12.5625 32.3125 19.523437 51.195312 19.574218v34.351563c.019532 6.378906 1.847656 12.617187 5.273438 17.996094-22.957032 4.902343-39.375 25.171875-39.40625 48.648437v78.246094c0 4.710938 3.820312 8.53125 8.535156 8.53125h153.589844c4.714844 0 8.535156-3.820312 8.535156-8.53125v-78.25c-.035156-23.472656-16.453125-43.734375-39.40625-48.636719 3.429688-5.378906 5.257812-11.625 5.273438-18.003906v-34.371094c18.882812-.035156 37.097656-6.996093 51.199218-19.558593 31.515625 28.320312 80.023438 25.726562 108.339844-5.792969 12.675781-14.105469 19.675781-32.410157 19.652344-51.375.054687-15.203125-4.46875-30.070313-12.980469-42.664063 17.304687-25.8125 17.304687-59.519531 0-85.328125 8.511719-12.597656 13.035156-27.464843 12.980469-42.667969-.046875-42.390624-34.402344-76.7460932-76.796875-76.7929682zm-145.058594 494.9062502h-76.796875v-69.714844c.019531-18.039062 14.640625-32.660156 32.679688-32.679688h9.984374v68.261719h-25.597656v17.066407h34.132813c4.710937 0 8.53125-3.820313 8.53125-8.53125v-51.199219h17.066406zm0-93.859375h-17.066406v-17.066407h17.066406zm8.53125-34.132813h-34.128906c-3.867188.03125-7.214844 2.691406-8.117188 6.449219-5.488281-2.90625-8.925781-8.601563-8.949219-14.8125v-68.433594h38.398438c5.140625-.007812 9.941406 2.554688 12.796875 6.828125l2.867187 4.265625c3.480469 5.238281 8.417969 9.347657 14.199219 11.824219v45.515625c-.023437 6.210937-3.464843 11.90625-8.949219 14.8125-.902343-3.757813-4.25-6.417969-8.117187-6.449219zm-51.042969-93.863281.300782-17.0625 16.613281.449219v16.613281zm102.242188 152.140625v69.714844h-42.664063v-102.394532h9.984375c18.039063.019532 32.660156 14.640626 32.679688 32.679688zm0-146.167969-8.535156 12.800781c-4.6875 7.070313-14.21875 9-21.289063 4.308594-1.707031-1.132812-3.175781-2.597656-4.308594-4.308594l-2.867187-4.265624c-6-9.050782-16.136719-14.496094-26.996094-14.507813h-4.265625v-11.792969l16.132813-8.0625c4.917968-2.394531 10.828124-1.257812 14.507812 2.789063 10.226562 9.828125 25.957031 11.089843 37.621094 3.023437zm131.910156-154.222656c17.53125 21.792969 17.53125 52.851563 0 74.644531-2.503906 3.121094-2.503906 7.5625 0 10.683594 8.542969 10.558594 13.1875 23.742188 13.148438 37.324219.039062 32.949219-26.644532 59.691406-59.59375 59.730469-17.203126.019531-33.582032-7.390626-44.925782-20.324219-3.367187-3.535157-8.964844-3.671875-12.496094-.304688-.105468.101563-.203124.199219-.304687.304688-6.394531 7.238281-14.449219 12.820312-23.472656 16.269531.476562-.613281.980469-1.210938 1.417969-1.859375l9.964843-14.949219c.925781-1.40625 1.417969-3.054687 1.417969-4.734375v-42.667969c-.003906-4.710937-3.824219-8.53125-8.535156-8.53125-2.261719.003907-4.433594.902344-6.03125 2.5l-11.035156 11.035157c-4.707032 4.71875-12.351563 4.730469-17.074219.023437-.183594-.183594-.359375-.371094-.527344-.5625-8.859375-8.855468-22.390625-11.054687-33.59375-5.453125l-13.234375 6.613281c-3.292969-3.578124-7.933594-5.621093-12.800781-5.625h-16.175781c-9.671876.011719-17.507813 7.847657-17.519532 17.519532v50.746094c-17.15625-.03125-33.472656-7.433594-44.789062-20.324219-3.367188-3.535157-8.964844-3.671875-12.496094-.304688-.105469.101563-.203125.199219-.304688.304688-21.714843 24.78125-59.40625 27.269531-84.191406 5.554687-12.953125-11.347656-20.371094-27.738281-20.34375-44.960937-.039062-13.582031 4.605469-26.765625 13.148438-37.324219 2.503906-3.121094 2.503906-7.5625 0-10.683594-17.53125-21.792968-17.53125-52.851562 0-74.644531 2.503906-3.121094 2.503906-7.5625 0-10.683594-8.542969-10.558593-13.1875-23.738281-13.148438-37.320312-.039062-32.953125 26.644532-59.695313 59.59375-59.730469 17.203125-.019531 33.582032 7.386719 44.925782 20.324219 3.367187 3.535156 8.964843 3.667969 12.496093.300781.105469-.097656.203125-.199219.304688-.300781 21.632812-24.742188 59.226562-27.261719 83.96875-5.625 1.996093 1.746093 3.875 3.625 5.625 5.625 3.367187 3.535156 8.964843 3.667969 12.496093.300781.105469-.097656.203126-.199219.304688-.300781 21.632812-24.742188 59.226562-27.261719 83.96875-5.625 1.996094 1.746093 3.875 3.625 5.625 5.625 3.367188 3.535156 8.964844 3.667969 12.496094.300781.105468-.097656.203125-.199219.300781-.300781 21.714844-24.785157 59.410156-27.273438 84.195313-5.558594 12.953124 11.351563 20.367187 27.742187 20.34375 44.964844.039062 13.582031-4.605469 26.761719-13.148438 37.320312-2.503906 3.121094-2.503906 7.5625 0 10.683594zm0 0"/><path d="m142.558594 156.117188c-3.332032-3.328126-8.730469-3.328126-12.0625 0l-16.546875 16.546874c-4.207031 4.179688-9.890625 6.535157-15.820313 6.554688-10.453125.027344-20.472656 4.179688-27.886718 11.554688l-25.078126 25.074218c-3.332031 3.332032-3.332031 8.734375 0 12.066406l34.132813 34.132813c3.332031 3.332031 8.734375 3.332031 12.066406 0l16.542969-16.546875c4.207031-4.179688 9.890625-6.535156 15.820312-6.550781 10.457032-.03125 20.476563-4.183594 27.886719-11.554688l25.078125-25.078125c3.332032-3.332031 3.332032-8.734375 0-12.066406zm-46.714844 77.316406-10.515625 10.515625-22.066406-22.066407 19.046875-19.046874c1.070312-1.058594 2.246094-2.007813 3.507812-2.832032-2.417968 12.148438 4.308594 24.257813 15.894532 28.628906-2.105469 1.40625-4.070313 3.015626-5.867188 4.800782zm15.085938-20.085938c-4.714844 0-8.535157-3.820312-8.535157-8.53125 0-4.714844 3.820313-8.535156 8.535157-8.535156 4.710937 0 8.53125 3.820312 8.53125 8.535156 0 4.710938-3.820313 8.53125-8.53125 8.53125zm28.617187 1.980469c-2.429687 2.378906-5.371094 4.171875-8.601563 5.246094 8.738282-10.84375 7.03125-26.714844-3.8125-35.453125-.28125-.222656-.566406-.445313-.855468-.65625l10.242187-10.238282 22.074219 22.054688zm0 0"/><path d="m244.953125 62.257812c-3.332031-3.332031-8.730469-3.332031-12.0625 0l-59.730469 59.730469 12.0625 12.066407 11.035156-11.035157v47.664063c0 4.714844 3.820313 8.535156 8.53125 8.535156h68.265626c4.710937 0 8.53125-3.820312 8.53125-8.535156v-47.664063l11.035156 11.035157 12.066406-12.066407zm19.566406 99.894532h-51.195312v-56.199219l25.597656-25.597656 25.597656 25.597656zm0 0"/><path d="m401.046875 170.683594h-10.410156l-6.914063-27.664063c-.945312-3.796875-4.359375-6.464843-8.273437-6.464843h-42.664063c-3.917968 0-7.332031 2.667968-8.277344 6.464843l-6.914062 27.664063h-10.410156c-4.710938 0-8.53125 3.820312-8.53125 8.535156v34.128906c0 4.714844 3.820312 8.535156 8.53125 8.535156h17.066406v17.066407h17.066406v-17.066407h25.597656v17.066407h17.066407v-17.066407h17.066406c4.710937 0 8.53125-3.820312 8.53125-8.535156v-34.128906c0-4.714844-3.820313-8.535156-8.53125-8.535156zm-61.597656-17.066406h29.335937l4.265625 17.066406h-37.871093zm53.0625 51.199218h-76.792969v-17.066406h76.796875v17.066406zm0 0"/><path d="m85.328125 136.554688h42.667969c4.710937 0 8.53125-3.820313 8.53125-8.535157v-42.664062c0-14.136719-11.460938-25.597657-25.597656-25.597657-14.136719 0-25.597657 11.460938-25.597657 25.597657-14.140625 0-25.601562 11.460937-25.601562 25.597656s11.460937 25.601563 25.597656 25.601563zm0-34.132813h8.535156c4.710938 0 8.53125-3.820313 8.53125-8.535156v-8.53125c0-4.710938 3.820313-8.53125 8.535157-8.53125 4.710937 0 8.53125 3.820312 8.53125 8.53125v34.132812h-34.128907c-4.714843 0-8.535156-3.820312-8.535156-8.535156 0-4.710937 3.820313-8.53125 8.53125-8.53125zm0 0"/><path d="m392.511719 68.289062c0-14.136718-11.460938-25.597656-25.597657-25.597656-14.136718 0-25.597656 11.460938-25.597656 25.597656v42.664063c0 4.714844 3.820313 8.535156 8.53125 8.535156h42.667969c14.136719 0 25.597656-11.460937 25.597656-25.597656 0-14.140625-11.460937-25.601563-25.601562-25.601563zm0 34.132813h-34.128907v-34.132813c0-4.710937 3.820313-8.53125 8.53125-8.53125 4.714844 0 8.535157 3.820313 8.535157 8.53125v8.535157c0 4.710937 3.820312 8.53125 8.53125 8.53125h8.535156c4.710937 0 8.53125 3.820312 8.53125 8.535156 0 4.710937-3.820313 8.53125-8.535156 8.53125zm0 0"/></svg>