<?xml version="1.0" encoding="iso-8859-1"?>
<!-- Generator: Adobe Illustrator 19.0.0, SVG Export Plug-In . SVG Version: 6.00 Build 0)  -->
<svg version="1.1" id="Capa_1" xmlns="http://www.w3.org/2000/svg" xmlns:xlink="http://www.w3.org/1999/xlink" x="0px" y="0px"
	 viewBox="0 0 480 480" style="enable-background:new 0 0 480 480;" xml:space="preserve">
<g>
	<g>
		<path d="M8,0C3.582,0,0,3.582,0,8v88h16V16h80V0H8z"/>
	</g>
</g>
<g>
	<g>
		<path d="M472,0h-88v16h80v80h16V8C480,3.582,476.418,0,472,0z"/>
	</g>
</g>
<g>
	<g>
		<path d="M16,464v-80H0v88c0,4.418,3.582,8,8,8h88v-16H16z"/>
	</g>
</g>
<g>
	<g>
		<path d="M464,384v80h-80v16h88c4.418,0,8-3.582,8-8v-88H464z"/>
	</g>
</g>
<g>
	<g>
		<path d="M463.8,232C459.476,114.655,365.345,20.524,248,16.2V0h-16v16.2C114.655,20.524,20.524,114.655,16.2,232H0v16h16.2
			c4.324,117.345,98.455,211.476,215.8,215.8V480h16v-16.2c117.345-4.324,211.476-98.455,215.8-215.8H480v-16H463.8z M70.264,360
			c-5.256-7.414-10.02-15.164-14.264-23.2v-30.4c0-14.58,11.82-26.4,26.4-26.4h17.784l-11.608,29.024
			c-1.189,2.973-0.49,6.369,1.776,8.632l16,16c3.124,3.123,8.188,3.123,11.312,0l16-16c2.266-2.263,2.965-5.659,1.776-8.632
			L123.816,280H141.6c14.58,0,26.4,11.82,26.4,26.4V360H70.264z M123.032,211.152l28.592,17.16C148.416,247.896,124.28,264,112,264
			c-17.843-3.039-32.686-15.412-38.888-32.416C86.808,230.456,111.536,226.304,123.032,211.152z M72.441,215.536
			C74.587,188.726,87.203,176,112,176c22.704,0,35.2,10.736,38.776,33.136l-26.656-16c-3.789-2.273-8.703-1.044-10.976,2.745
			c-0.3,0.5-0.544,1.03-0.728,1.583C108.368,209.6,86.513,214.2,72.441,215.536z M118.608,310.072L112,316.688l-6.608-6.616
			L112,293.536L118.608,310.072z M248,447.8V432h-16v15.8c-57.532-2.207-111.561-28.212-149.176-71.8H176c4.418,0,8-3.582,8-8v-40
			h112v40c0,4.418,3.582,8,8,8h93.176C359.561,419.588,305.532,445.593,248,447.8z M251.032,163.152l28.592,17.16
			C276.416,199.896,252.28,216,240,216c-17.843-3.039-32.686-15.412-38.888-32.416C214.808,182.456,239.536,178.304,251.032,163.152
			z M200.441,167.536C202.587,140.726,215.203,128,240,128c22.704,0,35.2,10.736,38.776,33.136l-26.656-16
			c-3.789-2.273-8.703-1.044-10.976,2.745c-0.3,0.5-0.544,1.03-0.728,1.583C236.368,161.6,214.513,166.2,200.441,167.536z
			 M246.608,262.072L240,268.688l-6.608-6.616L240,245.536L246.608,262.072z M228.184,232l-11.608,29.024
			c-1.189,2.973-0.49,6.369,1.776,8.632l16,16c3.124,3.123,8.188,3.123,11.312,0l16-16c2.266-2.263,2.965-5.659,1.776-8.632
			L251.816,232H269.6c14.58,0,26.4,11.82,26.4,26.4V312H184v-53.6c0-14.58,11.82-26.4,26.4-26.4H228.184z M424,336.8
			c-4.244,8.036-9.008,15.786-14.264,23.2H312v-53.6c0-14.58,11.82-26.4,26.4-26.4h17.784l-11.608,29.024
			c-1.189,2.973-0.49,6.369,1.776,8.632l16,16c3.124,3.123,8.188,3.123,11.312,0l16-16c2.266-2.263,2.965-5.659,1.776-8.632
			L379.816,280H397.6c14.58,0,26.4,11.82,26.4,26.4V336.8z M379.032,211.152l28.592,17.16C404.416,247.896,380.28,264,368,264
			c-17.843-3.039-32.686-15.412-38.888-32.416C342.808,230.456,367.536,226.304,379.032,211.152z M328.441,215.536
			C330.587,188.726,343.203,176,368,176c22.704,0,35.2,10.736,38.776,33.136l-26.656-16c-3.789-2.273-8.703-1.044-10.976,2.745
			c-0.3,0.5-0.544,1.03-0.728,1.583C364.368,209.6,342.513,214.2,328.441,215.536z M374.608,310.072L368,316.688l-6.608-6.616
			L368,293.536L374.608,310.072z M447.8,248c-0.651,17.397-3.495,34.643-8.464,51.328c-3.041-18.442-17.879-32.67-36.432-34.936
			C415.39,254.566,423.07,239.862,424,224c0-52.896-30.456-64-56-64s-56,11.104-56,64c0.93,15.862,8.61,30.566,21.096,40.392
			c-6.51,0.802-12.744,3.108-18.208,6.736c-1.016,0.68-1.944,1.44-2.888,2.2V258.4c0.043-21.376-15.881-39.418-37.096-42.032
			c12.48-9.821,20.159-24.515,21.096-40.368c0-52.896-30.456-64-56-64s-56,11.104-56,64c0.93,15.862,8.61,30.566,21.096,40.392
			C183.89,219.005,167.969,237.033,168,258.4v14.896c-0.944-0.752-1.872-1.52-2.888-2.2c-5.464-3.628-11.698-5.935-18.208-6.736
			c12.478-9.819,20.157-24.509,21.096-40.36c0-52.896-30.456-64-56-64s-56,11.104-56,64c0.93,15.862,8.61,30.566,21.096,40.392
			c-18.553,2.266-33.391,16.494-36.432,34.936C35.695,282.643,32.851,265.397,32.2,248H48v-16H32.2
			C36.5,123.485,123.485,36.5,232,32.2V48h16V32.2c108.515,4.3,195.5,91.285,199.8,199.8H432v16H447.8z"/>
	</g>
</g>
<g>
</g>
<g>
</g>
<g>
</g>
<g>
</g>
<g>
</g>
<g>
</g>
<g>
</g>
<g>
</g>
<g>
</g>
<g>
</g>
<g>
</g>
<g>
</g>
<g>
</g>
<g>
</g>
<g>
</g>
</svg>
