<svg height="512pt" viewBox="-69 0 512 512.001" width="512pt" xmlns="http://www.w3.org/2000/svg" xmlns:xlink="http://www.w3.org/1999/xlink"><linearGradient id="a"><stop offset="0" stop-color="#662d91"/><stop offset=".437" stop-color="#3873b3"/><stop offset="1" stop-color="#00c9dd"/></linearGradient><linearGradient id="b" gradientTransform="matrix(.994289 0 0 -.994289 -68.529852 519.150725)" gradientUnits="userSpaceOnUse" x1="38.8469" x2="458.0205" xlink:href="#a" y1="417.7769" y2="-1.4052"/><linearGradient id="c" gradientTransform="matrix(.994289 0 0 -.994289 -68.529852 519.150725)" gradientUnits="userSpaceOnUse" x1="86.7758" x2="505.9579" xlink:href="#a" y1="465.7144" y2="46.5323"/><linearGradient id="d" gradientTransform="matrix(.994289 0 0 -.994289 -68.529852 519.150725)" gradientUnits="userSpaceOnUse" x1="121.057" x2="540.2392" xlink:href="#a" y1="499.9956" y2="80.8135"/><linearGradient id="e" gradientTransform="matrix(.994289 0 0 -.994289 -68.529852 519.150725)" gradientUnits="userSpaceOnUse" x1="80.3395" x2="499.5217" xlink:href="#a" y1="459.2781" y2="40.096"/><path d="m374.941406 511.28125v-109.550781c-.03125-45.390625-32.15625-84.421875-76.695312-93.179688v-43.535156l5.488281-4.613281c1.34375-1.132813 2.304687-2.652344 2.753906-4.351563l7.03125-26.683593c18.386719-3.671876 30.320313-21.5625 26.644531-39.953126-1.917968-9.589843-7.875-17.890624-16.351562-22.769531v-30.304687c0-75.296875-61.042969-136.339844-136.34375-136.339844-75.296875 0-136.339844 61.042969-136.339844 136.34375v30.300781c-16.269531 9.347657-21.878906 30.113281-12.53125 46.382813 6.078125 10.582031 17.367188 17.089844 29.574219 17.050781h8.519531v78.472656c-44.535156 8.757813-76.660156 47.789063-76.691406 93.179688v109.550781h17.042969v-109.550781c-.007813-42.957031 34.757812-77.816407 77.714843-77.917969h22.835938l-40.960938 41.0625c-3.324218 3.332031-3.320312 8.726562.011719 12.050781 1.1875 1.1875 2.699219 1.996094 4.34375 2.324219l27.0625 5.429688-17.179687 28.605468c-1.546875 2.589844-1.613282 5.804688-.167969 8.453125l46.679687 85.792969c2.253907 4.132812 7.429688 5.65625 11.558594 3.402344 2.730469-1.484375 4.433594-4.339844 4.445313-7.449219v-140.191406l26.890625 42.324219c2.851562 3.972656 8.386718 4.878906 12.359375 2.027343.78125-.5625 1.464843-1.246093 2.027343-2.027343l26.894532-42.324219v140.191406c0 4.707031 3.820312 8.519531 8.523437 8.515625 3.117188 0 5.984375-1.707031 7.476563-4.441406l46.679687-85.75c1.445313-2.648438 1.378907-5.863282-.167969-8.453125l-17.136718-28.632813 27.0625-5.425781c4.613281-.925781 7.605468-5.417969 6.679687-10.03125-.332031-1.648437-1.140625-3.160156-2.324219-4.347656l-40.960937-41.105469h22.792969c42.957031.101562 77.726562 34.960938 77.714844 77.917969v109.550781zm-68.171875-298.246094h-25.5625v-34.085937h25.5625c9.410157 0 17.042969 7.628906 17.042969 17.042969 0 9.414062-7.632812 17.042968-17.042969 17.042968zm-82.726562 57.636719c-37.230469 20.199219-83.785157 6.394531-103.984375-30.835937-6.074219-11.199219-9.265625-23.738282-9.28125-36.480469v-30.464844l109.644531-19.394531c2.65625-.472656 4.929687-2.171875 6.136719-4.585938l7.242187-14.484375 8.683594 21.753907c.863281 2.167968 2.578125 3.886718 4.746094 4.753906l16.933593 6.816406v35.664062c-.054687 28.070313-15.445312 53.871094-40.121093 67.257813zm57.164062-114.511719-24.246093-9.722656-14.382813-36.027344c-1.242187-3.121094-4.203125-5.21875-7.558594-5.359375-3.367187-.183593-6.511719 1.675781-7.976562 4.710938l-13.820313 27.695312-119.488281 21.140625v-5.605468c0-51.769532 41.964844-93.734376 93.734375-93.734376 51.765625 0 93.734375 41.964844 93.734375 93.734376v3.167968zm-213.035156-19.816406c0-65.886719 53.410156-119.300781 119.296875-119.300781s119.300781 53.414062 119.300781 119.300781v25.5625h-8.523437v-8.914062c0-61.179688-49.597656-110.777344-110.777344-110.777344s-110.777344 49.597656-110.777344 110.777344v8.914062h-8.519531zm-17.042969 59.648438c0-9.414063 7.628906-17.042969 17.042969-17.042969h25.5625v34.085937h-25.5625c-9.414063 0-17.042969-7.632812-17.042969-17.042968zm42.605469 110.828124v-76.742187h4.003906c6.382813 21.179687 20.058594 39.421875 38.601563 51.484375v25.957031c-1.046875-.476562-2.179688-.730469-3.332032-.75h-38.25c-.347656 0-.683593.050781-1.023437.050781zm42.609375 163.175782-28.351562-52.101563 20.84375-34.816406c2.421874-4.035156 1.113281-9.269531-2.921876-11.691406-.839843-.503907-1.753906-.855469-2.710937-1.046875l-23.324219-4.671875 33.617188-33.710938 2.847656 4.484375zm51.125-84.832032-34.082031-53.683593v-40.902344c21.898437 8.65625 46.269531 8.65625 68.167969 0v40.902344zm64.269531-14.84375c-4.613281.925782-7.605469 5.414063-6.679687 10.03125.191406.957032.546875 1.871094 1.046875 2.707032l20.84375 34.820312-28.351563 52.117188v-133.554688l2.847656-4.484375 33.617188 33.710938zm-9.808593-63.550781c-1.148438.019531-2.285157.273438-3.332032.75v-25.941406c18.566406-12.046875 32.25-30.300781 38.609375-51.5h18.484375l-5.019531 19.042969-40.546875 34.085937c-3.605469 3.03125-4.070312 8.410157-1.039062 12.015625 3.03125 3.605469 8.410156 4.070313 12.015624 1.039063l20.101563-16.898438v27.457031c-.339844 0-.671875-.050781-1.023437-.050781zm0 0" fill="url(#b)"/><path d="m161.90625 195.992188v-8.523438c0-4.703125-3.816406-8.519531-8.519531-8.519531-4.707031 0-8.523438 3.816406-8.523438 8.519531v8.523438c0 4.703124 3.816407 8.519531 8.523438 8.519531 4.703125 0 8.519531-3.816407 8.519531-8.519531zm0 0" fill="url(#c)"/><path d="m221.554688 178.949219c-4.703126 0-8.519532 3.8125-8.519532 8.519531v8.519531c0 4.707031 3.816406 8.523438 8.519532 8.523438 4.707031 0 8.523437-3.816407 8.523437-8.523438v-8.519531c0-4.707031-3.816406-8.519531-8.523437-8.519531zm0 0" fill="url(#d)"/><path d="m205.78125 231.714844c-10.898438 8.007812-25.738281 8.007812-36.640625 0-3.800781-2.777344-9.136719-1.945313-11.914063 1.855468-2.773437 3.800782-1.941406 9.136719 1.859376 11.914063 16.882812 12.382813 39.851562 12.382813 56.734374 0 3.800782-2.777344 4.636719-8.113281 1.859376-11.914063-2.777344-3.800781-8.113282-4.632812-11.914063-1.855468zm0 0" fill="url(#e)"/></svg>