<?xml version="1.0" encoding="iso-8859-1"?>
<!-- Generator: Adobe Illustrator 19.0.0, SVG Export Plug-In . SVG Version: 6.00 Build 0)  -->
<svg version="1.1" id="Capa_1" xmlns="http://www.w3.org/2000/svg" xmlns:xlink="http://www.w3.org/1999/xlink" x="0px" y="0px"
	 viewBox="0 0 512 512" style="enable-background:new 0 0 512 512;" xml:space="preserve">
<g>
	<g>
		<path d="M423.5,167.506c0-0.007,0.001-0.013,0.001-0.02C423.501,75.134,348.366,0,256.014,0
			C163.892,0,88.909,74.761,88.535,166.796c-0.021,0.23-0.035,0.461-0.035,0.696v239.964c0,0.013-0.001,0.025-0.001,0.038
			c0,0.007,0.001,0.013,0.001,0.02v39.977c0,4.14,3.359,7.5,7.5,7.5c4.13,0,7.5-3.36,7.5-7.5v-39.996v-0.004v-0.034
			c0.021-23.417,19.077-42.462,42.499-42.462h32.884c3.785,39.227,36.928,70,77.131,70c40.203,0,73.346-30.773,77.131-70.001
			l32.857,0.001c23.422,0,42.477,19.045,42.499,42.462v0.038c0,0.007,0.001,0.013,0.001,0.02V497h-55.003v-36.004
			c0-4.143-3.357-7.5-7.5-7.5c-4.142,0-7.5,3.357-7.5,7.5V497H173.501v-36.004c0-4.143-3.357-7.5-7.5-7.5s-7.5,3.357-7.5,7.5V497
			H103.5v-19.51c0-4.131-3.37-7.5-7.5-7.5c-4.141,0-7.5,3.369-7.5,7.5v26.99c0,0.007-0.001,0.013-0.001,0.02
			c0,4.143,3.357,7.5,7.5,7.5h320.002c4.143,0,7.5-3.357,7.5-7.5v-97.006c0-0.013-0.001-0.025-0.001-0.038V167.506z
			 M256.014,419.994c-31.924,0-58.316-24.063-62.034-55H226c4.143,0,7.5-3.357,7.5-7.5v-0.001v-0.001v-14.988
			c7.306,1.306,14.824,1.988,22.5,1.988c7.676,0,15.194-0.683,22.5-1.988v14.988c0,4.143,3.357,7.5,7.5,7.5l32.048,0.001
			C314.33,395.931,287.938,419.994,256.014,419.994z M266,269.994c-15.421,0-27.5,9.883-27.5,22.5s12.079,22.5,27.5,22.5
			c14.135,0,25.455-8.306,27.246-19.407c4.088,0.25,8.096,0.387,11.997,0.387c12.299,0,23.645-1.207,33.946-3.325
			c-20.592,22.622-50.261,36.844-83.19,36.844c-62.032,0-112.5-50.468-112.5-112.5v-42.001h0.001h225v42
			c0,20.376-5.445,39.504-14.957,56.006c-18.475,6.825-40.679,9.312-64.355,7.248C284.344,274.036,275.858,269.994,266,269.994z
			 M278.5,292.494c0,3.54-5.346,7.5-12.5,7.5s-12.5-3.96-12.5-7.5c0-3.54,5.346-7.5,12.5-7.5S278.5,288.954,278.5,292.494z
			 M408.5,167.493v201.312c-10.524-11.551-25.679-18.811-42.499-18.811l-72.501-0.002v-11.131
			c29.27-9.024,54.073-28.326,70.183-53.673c16.571-6.942,28.665-16.522,35.412-26.598c6.178-9.226,7.445-18.781,3.478-26.213
			c-4.068-7.621-12.082-10.648-19.127-11.772c0.034-1.201,0.055-2.404,0.055-3.613v-49.5v-20c0-4.143-3.357-7.5-7.5-7.5
			s-7.5,3.357-7.5,7.5v12.5h-15v-12.5c0-4.143-3.357-7.5-7.5-7.5s-7.5,3.357-7.5,7.5v12.5h-15v-12.5c0-4.143-3.357-7.5-7.5-7.5
			s-7.5,3.357-7.5,7.5v12.5h-15v-12.5c0-4.143-3.357-7.5-7.5-7.5s-7.5,3.357-7.5,7.5v12.5h-15v-12.5c0-4.143-3.357-7.5-7.5-7.5
			s-7.5,3.357-7.5,7.5v12.5h-15v-12.5c0-4.143-3.357-7.5-7.5-7.5s-7.5,3.357-7.5,7.5v12.5h-15v-12.5c0-4.143-3.357-7.5-7.5-7.5
			s-7.5,3.357-7.5,7.5v12.5h-15v-12.5c0-4.143-3.357-7.5-7.5-7.5s-7.5,3.357-7.5,7.5v12.5h-15v-12.5c0-4.143-3.357-7.5-7.5-7.5
			s-7.5,3.357-7.5,7.5v20v49.5c0,57.258,37.94,105.817,90,121.869v11.133H146c-16.82,0-31.975,7.26-42.499,18.811V168.009
			c0.012-0.173,0.026-0.346,0.026-0.523C103.526,83.405,171.932,15,256.014,15c84.078,0,152.481,68.399,152.487,152.476
			C408.501,167.482,408.5,167.487,408.5,167.493z M375.501,261.441c3.081-8.256,5.329-16.916,6.642-25.876
			c3.66,0.71,6.223,2.05,7.198,3.877c1.256,2.354,0.243,6.392-2.71,10.803C384.014,254.153,380.215,257.945,375.501,261.441z"/>
	</g>
</g>
<g>
</g>
<g>
</g>
<g>
</g>
<g>
</g>
<g>
</g>
<g>
</g>
<g>
</g>
<g>
</g>
<g>
</g>
<g>
</g>
<g>
</g>
<g>
</g>
<g>
</g>
<g>
</g>
<g>
</g>
</svg>
