<svg height="512pt" viewBox="0 0 512.00047 512" width="512pt" xmlns="http://www.w3.org/2000/svg" xmlns:xlink="http://www.w3.org/1999/xlink"><linearGradient id="a"><stop offset=".004" stop-color="#009fff"/><stop offset=".093" stop-color="#099bf8"/><stop offset=".242" stop-color="#238ee4"/><stop offset=".431" stop-color="#4c7bc5"/><stop offset=".654" stop-color="#865f99"/><stop offset=".902" stop-color="#cf3d61"/><stop offset=".995" stop-color="#ec2f4b"/></linearGradient><linearGradient id="b" gradientTransform="matrix(.614559 0 0 -.614559 0 501.622764)" gradientUnits="userSpaceOnUse" x1="-22.411" x2="859.5448" xlink:href="#a" y1="656.5531" y2="656.5531"/><linearGradient id="c" gradientTransform="matrix(.614559 0 0 -.614559 0 501.622764)" gradientUnits="userSpaceOnUse" x1="-22.411" x2="859.5448" xlink:href="#a" y1="698.2076" y2="698.2076"/><linearGradient id="d" gradientTransform="matrix(.614559 0 0 -.614559 0 501.622764)" gradientUnits="userSpaceOnUse" x1="-22.411" x2="859.5448" xlink:href="#a" y1="364.9616" y2="364.9616"/><linearGradient id="e" gradientTransform="matrix(.614559 0 0 -.614559 0 501.622764)" gradientUnits="userSpaceOnUse" x1="-22.411" x2="859.5448" xlink:href="#a" y1="142.5869" y2="142.5869"/><linearGradient id="f" gradientTransform="matrix(.614559 0 0 -.614559 0 501.622764)" gradientUnits="userSpaceOnUse" x1="-22.411" x2="859.5448" xlink:href="#a" y1="682.2894" y2="682.2894"/><linearGradient id="g" gradientTransform="matrix(.614559 0 0 -.614559 0 501.622764)" gradientUnits="userSpaceOnUse" x1="-22.411" x2="859.5448" xlink:href="#a" y1="420.5958" y2="420.5958"/><linearGradient id="h" gradientTransform="matrix(.614559 0 0 -.614559 0 501.622764)" gradientUnits="userSpaceOnUse" x1="-22.411" x2="859.5448" xlink:href="#a" y1="115.0259" y2="115.0259"/><linearGradient id="i" gradientTransform="matrix(.614559 0 0 -.614559 .000193 501.623195)" gradientUnits="userSpaceOnUse" x1="-22.4069" x2="859.5488" xlink:href="#a" y1="149.7387" y2="149.7387"/><linearGradient id="j" gradientTransform="matrix(.614559 0 0 -.614559 -.000184 501.623072)" gradientUnits="userSpaceOnUse" x1="-22.4148" x2="859.541" xlink:href="#a" y1="108.0824" y2="108.0824"/><path d="m413.867188 85.332031c-7.070313 0-12.800782 5.730469-12.800782 12.800781 0 7.070313 5.730469 12.800782 12.800782 12.800782 7.070312 0 12.800781-5.730469 12.800781-12.800782 0-7.070312-5.730469-12.800781-12.800781-12.800781zm0 0" fill="url(#b)"/><path d="m449.769531 2.5c-3.332031-3.332031-8.734375-3.332031-12.066406 0l-68.269531 68.265625c-1.597656 1.601563-2.5 3.769531-2.5 6.035156v59.730469c0 4.714844 3.820312 8.535156 8.535156 8.535156h59.730469c2.265625 0 4.433593-.902344 6.035156-2.5l68.265625-68.269531c3.332031-3.332031 3.332031-8.734375 0-12.066406zm-18.101562 125.5h-47.667969v-47.667969l59.734375-59.734375 47.667969 47.667969zm0 0" fill="url(#c)"/><path d="m8.53125 290.132812h25.601562v1.09375c.035157 15.351563 10.640626 28.660157 25.601563 32.117188v77.722656c0 4.714844 3.820313 8.535156 8.53125 8.535156h51.199219c4.714844 0 8.535156-3.824218 8.535156-8.535156v-34.132812h8.601562c14.085938-.039063 25.492188-11.445313 25.53125-25.53125v-18.058594c10.898438-2.554688 19.757813-10.460938 23.535157-21l143.667969 63.855469c4.308593 1.914062 9.347656-.027344 11.261718-4.332031.484375-1.09375.734375-2.273438.734375-3.46875v-204.800782c.003907-4.710937-3.816406-8.53125-8.53125-8.53125-1.195312 0-2.375.25-3.464843.734375l-143.667969 63.855469c-4.664063-13.113281-17.058594-21.882812-30.976563-21.921875h-87.515625c-18.242187.019531-33.023437 14.800781-33.042969 33.039063v1.09375h-25.601562c-4.710938 0-8.53125 3.820312-8.53125 8.53125v51.199218c0 4.714844 3.820312 8.535156 8.53125 8.535156zm281.601562-108.238281 34.136719-15.164062v178.535156l-34.136719-15.160156zm-102.398437 45.519531 85.332031-37.933593v133.078125l-85.332031-37.972656zm-76.800781 130.984376v34.132812h-34.132813v-68.265625h34.132813zm34.132812-16.996094c-.003906 4.671875-3.789062 8.460937-8.464844 8.464844h-8.601562v-25.601563h17.066406zm-93.867187-59.804688v-60.824218c.011719-8.816407 7.15625-15.964844 15.976562-15.972657h87.515625c8.820313.007813 15.964844 7.15625 15.976563 15.972657v70.453124c-.011719 8.816407-7.15625 15.964844-15.976563 15.972657h-87.515625c-8.820312-.007813-15.964843-7.15625-15.976562-15.972657zm-34.132813-42.664062h17.066406v34.132812h-17.066406zm0 0" fill="url(#d)"/><path d="m425.03125 335.546875c-3.332031-3.332031-8.734375-3.332031-12.066406 0l-60.347656 60.347656c-3.332032 3.332031-3.332032 8.734375 0 12.066407l84.480468 84.480468c3.332032 3.332032 8.734375 3.332032 12.066406 0l60.335938-60.339844c3.332031-3.332031 3.332031-8.734374 0-12.066406zm56.097656 80.214844-48.15625-3.695313-3.703125-48.152344zm-38 58.554687-72.414062-72.398437 41.191406-41.1875 4.617188 59.9375c.320312 4.195312 3.652343 7.535156 7.851562 7.859375l59.945312 4.605468zm0 0" fill="url(#e)"/><path d="m230.402344 162.132812c32.921875.074219 59.671875-26.554687 59.75-59.476562.027344-12.96875-4.171875-25.59375-11.964844-35.960938l52.128906-52.128906-12.082031-12.066406-52.128906 52.113281c-26.394531-19.792969-63.835938-14.445312-83.628907 11.945313-19.792968 26.394531-14.445312 63.832031 11.949219 83.628906 10.375 7.78125 23.003907 11.972656 35.976563 11.945312zm0-102.402343c23.5625 0 42.664062 19.105469 42.664062 42.667969 0 23.566406-19.101562 42.667968-42.664062 42.667968-23.566406 0-42.667969-19.101562-42.667969-42.667968.027344-23.550782 19.113281-42.636719 42.667969-42.667969zm0 0" fill="url(#f)"/><path d="m366.933594 298.667969h42.667968v8.53125c0 4.714843 3.820313 8.535156 8.53125 8.535156h68.269532c4.710937 0 8.53125-3.824219 8.53125-8.535156v-42.503907c-.042969-14.492187-9.207032-27.386718-22.875-32.195312 15.359375-10.929688 18.949218-32.242188 8.019531-47.601562-10.925781-15.359376-32.238281-18.953126-47.597656-8.023438-15.363281 10.929688-18.953125 32.242188-8.023438 47.601562 2.207031 3.101563 4.917969 5.8125 8.023438 8.023438-5.523438 1.96875-10.449219 5.324219-14.304688 9.742188-2.972656-3.425782-6.601562-6.226563-10.675781-8.234376 11.472656-8.265624 14.070312-24.265624 5.804688-35.734374-8.269532-11.46875-24.265626-14.066407-35.738282-5.800782-11.46875 8.265625-14.066406 24.265625-5.800781 35.734375 1.609375 2.234375 3.566406 4.191407 5.800781 5.800781-11.6875 5.683594-19.125 17.527344-19.164062 30.527344v25.597656c0 4.714844 3.820312 8.535157 8.53125 8.535157zm85.335937-110.933594c9.425781 0 17.066407 7.640625 17.066407 17.066406s-7.640626 17.066407-17.066407 17.066407-17.066406-7.640626-17.066406-17.066407 7.640625-17.066406 17.066406-17.066406zm-25.601562 102.398437v-25.4375c.015625-9.511718 7.71875-17.214843 17.230469-17.230468h16.742187c9.507813.015625 17.214844 7.71875 17.226563 17.230468v33.972657h-51.199219zm-34.132813-85.332031c4.710938 0 8.53125 3.820313 8.53125 8.53125 0 4.714844-3.820312 8.535157-8.53125 8.535157-4.714844 0-8.535156-3.820313-8.535156-8.535157 0-4.710937 3.820312-8.53125 8.535156-8.53125zm-17.066406 59.730469c0-9.425781 7.640625-17.066406 17.066406-17.066406 9.425782 0 17.066406 7.640625 17.066406 17.066406v17.066406h-34.132812zm0 0" fill="url(#g)"/><path d="m238.933594 349.867188h-34.132813c-2.261719 0-4.433593.898437-6.03125 2.5l-51.203125 51.199218c-3.328125 3.332032-3.328125 8.734375 0 12.066406l93.867188 93.867188c3.332031 3.332031 8.734375 3.332031 12.066406 0l68.269531-68.265625c3.332031-3.332031 3.332031-8.734375 0-12.066406l-76.800781-76.800781c-1.601562-1.601563-3.773438-2.5-6.035156-2.5zm8.535156 141.535156-81.800781-81.800782 42.664062-42.667968h27.070313l68.265625 68.265625zm0 0" fill="url(#h)"/><path d="m198.773438 420.632812 34.132812-34.132812 12.066406 12.066406-34.132812 34.132813zm0 0" fill="url(#i)"/><path d="m224.371094 446.234375 34.132812-34.136719 12.066406 12.070313-34.132812 34.132812zm0 0" fill="url(#j)"/></svg>