<svg height="452pt" viewBox="0 -22 452.40023 452" width="452pt" xmlns="http://www.w3.org/2000/svg"><linearGradient id="a" gradientUnits="userSpaceOnUse" x1="226.199818" x2="226.199818" y1="-39.984885" y2="426.363115"><stop offset="0" stop-color="#00efd1"/><stop offset="1" stop-color="#00acea"/></linearGradient><path d="m449.03125 111.230469c-13.476562-66.785157-61.800781-109.941407-123.109375-109.941407-31.78125 0-66.109375 12.117188-99.664063 35.109376-34.007812-24.019532-67.746093-36.199219-100.378906-36.199219-61.664062 0-109.78125 43.625-122.582031 111.121093-18.628906 97.09375 40.246094 225.867188 213.765625 294.714844.175781.070313.347656.132813.527344.191406 5.523437 2.132813 11.640625 2.132813 17.164062 0 .199219-.066406.398438-.136718.59375-.21875 79.488282-32.199218 141.171875-79.449218 178.378906-136.632812 32.78125-50.382812 45.324219-106.519531 35.316407-158.070312zm-220.867188 276.109375c-.648437.214844-1.316406.375-1.992187.476562-.6875-.105468-1.363281-.269531-2.023437-.484375-98.523438-39.164062-157.765626-98.132812-185.378907-158.316406h66.414063c3.75 0 7.1875-2.101563 8.898437-5.445313l31.660157-61.84375 48.859374 163.15625c1.222657 4.082032 4.894532 6.941407 9.152344 7.125.144532.003907.285156.007813.429688.007813 4.105468 0 7.792968-2.507813 9.300781-6.324219l49.199219-124.476562 27.070312 76.15625c1.066406 3 3.5 5.3125 6.546875 6.226562 3.050781.914063 6.351563.324219 8.894531-1.589844l70.332032-52.992187h37.78125c-4.742188 10.191406-10.207032 20.03125-16.347656 29.449219-34.914063 53.664062-93.273438 98.21875-168.796876 128.875zm193.277344-178.324219h-49.257812c-2.171875 0-4.285156.707031-6.019532 2.011719l-62.121093 46.804687-31.4375-88.429687c-1.398438-3.925782-5.082031-6.574219-9.25-6.648438-4.167969-.074218-7.941407 2.445313-9.472657 6.320313l-48.402343 122.441406-47.71875-159.371094c-1.171875-3.910156-4.601563-6.714843-8.671875-7.089843-4.066406-.371094-7.949219 1.769531-9.808594 5.402343l-40.214844 78.558594h-68.320312c-11.1875-32.539063-13.390625-64.832031-7.800782-93.945313 5.445313-28.714843 18.042969-52.769531 36.425782-69.5625 18.121094-16.554687 41.121094-25.300781 66.511718-25.300781 30.109376 0 61.84375 12.285157 94.3125 36.507813 3.507813 2.617187 8.3125 2.648437 11.851563.078125 32-23.226563 64.460937-35.5 93.878906-35.5 25.332031 0 48.367188 8.714843 66.617188 25.203125 18.414062 16.636718 31.164062 40.375 36.878906 68.660156 5.859375 30.246094 3 62.398438-7.980469 93.859375zm0 0" fill="url(#a)"/></svg>