<svg height="512pt" viewBox="0 0 512.00042 512" width="512pt" xmlns="http://www.w3.org/2000/svg" xmlns:xlink="http://www.w3.org/1999/xlink"><linearGradient id="a"><stop offset="0" stop-color="#662d91"/><stop offset=".437" stop-color="#3873b3"/><stop offset="1" stop-color="#00c9dd"/></linearGradient><linearGradient id="b" gradientTransform="matrix(1.069659 0 0 -1.069659 0 519.85644)" gradientUnits="userSpaceOnUse" x1="53.1632" x2="492.5735" xlink:href="#a" y1="432.7911" y2="-6.6192"/><linearGradient id="c" gradientTransform="matrix(1.069659 0 0 -1.069659 0 519.85644)" gradientUnits="userSpaceOnUse" x1="46.1566" x2="485.5748" xlink:href="#a" y1="425.7925" y2="-13.6258"/><linearGradient id="d" gradientTransform="matrix(1.069659 0 0 -1.069659 0 519.85644)" gradientUnits="userSpaceOnUse" x1="53.2237" x2="492.6339" xlink:href="#a" y1="432.8517" y2="-6.5586"/><linearGradient id="e" gradientTransform="matrix(1.069659 0 0 -1.069659 0 519.85644)" gradientUnits="userSpaceOnUse" x1="-98.3854" x2="341.0249" xlink:href="#a" y1="281.2426" y2="-158.1677"/><linearGradient id="f" gradientTransform="matrix(1.069659 0 0 -1.069659 0 519.85644)" gradientUnits="userSpaceOnUse" x1="-62.4865" x2="376.9238" xlink:href="#a" y1="317.1414" y2="-122.2688"/><linearGradient id="g" gradientTransform="matrix(1.069659 0 0 -1.069659 0 519.85644)" gradientUnits="userSpaceOnUse" x1="-32.5743" x2="406.836" xlink:href="#a" y1="347.0537" y2="-92.3566"/><linearGradient id="h" gradientTransform="matrix(1.069659 0 0 -1.069659 0 519.85644)" gradientUnits="userSpaceOnUse" x1="1.3329" x2="440.7432" xlink:href="#a" y1="380.9608" y2="-58.4495"/><path d="m256 93.867188c-89.542969 0-162.132812 72.589843-162.132812 162.128906 0 89.542968 72.589843 162.132812 162.132812 162.132812 89.539062 0 162.128906-72.589844 162.128906-162.132812-.097656-89.5-72.628906-162.03125-162.128906-162.128906zm8.53125 306.761718v-16.632812c0-4.710938-3.820312-8.535156-8.53125-8.535156-4.714844 0-8.535156 3.824218-8.535156 8.535156v16.632812c-73.273438-4.382812-131.714844-62.824218-136.097656-136.097656h16.632812c4.710938 0 8.53125-3.820312 8.53125-8.535156 0-4.710938-3.820312-8.535156-8.53125-8.535156h-16.632812c4.382812-73.269532 62.824218-131.710938 136.097656-136.09375v16.628906c0 4.714844 3.820312 8.535156 8.535156 8.535156 4.710938 0 8.53125-3.820312 8.53125-8.535156v-16.628906c73.273438 4.382812 131.714844 62.824218 136.097656 136.09375h-16.632812c-4.710938 0-8.53125 3.824218-8.53125 8.535156 0 4.714844 3.820312 8.535156 8.53125 8.535156h16.632812c-4.382812 73.273438-62.824218 131.710938-136.097656 136.097656zm0 0" fill="url(#b)"/><path d="m361.09375 282.03125-46.359375-15.453125c5.9375-32.449219-15.558594-63.570313-48.007813-69.507813-32.453124-5.933593-63.570312 15.558594-69.507812 48.011719-3 16.390625.988281 33.292969 10.996094 46.617188l-9.464844 9.464843c-3.390625 3.273438-3.484375 8.675782-.210938 12.066407 3.277344 3.386719 8.675782 3.480469 12.066407.207031.070312-.066406.140625-.136719.210937-.207031l9.480469-9.449219c26.246094 19.761719 63.539063 14.507812 83.300781-11.738281 2.1875-2.90625 4.105469-6.003907 5.726563-9.261719l46.378906 15.460938c4.476563 1.492187 9.3125-.929688 10.804687-5.410157 1.488282-4.476562-.9375-9.3125-5.414062-10.800781zm-105.09375 16.632812c-8.363281-.003906-16.535156-2.476562-23.492188-7.109374l19.128907-19.132813c5.488281 1.585937 11.402343.1875 15.601562-3.683594l25.539063 8.53125c-7.558594 13.191407-21.578125 21.34375-36.777344 21.394531zm42.152344-37.605468-25.4375-8.476563c-1.898438-9.230469-10.921875-15.175781-20.15625-13.277343-7.921875 1.628906-13.613282 8.601562-13.625 16.691406.019531 1.476562.234375 2.941406.636718 4.363281l-19.128906 19.128906c-13.023437-19.636719-7.660156-46.113281 11.976563-59.136719 19.636719-13.023437 46.113281-7.660156 59.136719 11.976563 4.652343 7.015625 7.125 15.25 7.109374 23.667969-.066406 1.695312-.238281 3.386718-.511718 5.0625zm0 0" fill="url(#c)"/><path d="m256 0c-141.386719 0-256 114.613281-256 255.996094 0 65.734375 25.285156 128.953125 70.625 176.554687 3.25 3.410157 8.652344 3.542969 12.0625.289063 3.414062-3.25 3.542969-8.652344.292969-12.066406-91.023438-95.539063-87.359375-246.777344 8.183593-337.800782 95.539063-91.019531 246.777344-87.355468 337.800782 8.1875 85.464844 89.710938 88.171875 229.871094 6.230468 322.8125v-21.445312c0-4.710938-3.820312-8.535156-8.53125-8.535156-4.714843 0-8.535156 3.824218-8.535156 8.535156v42.667968c0 4.710938 3.820313 8.53125 8.535156 8.53125h42.664063c4.714844 0 8.535156-3.820312 8.535156-8.53125 0-4.714843-3.820312-8.535156-8.535156-8.535156h-22.601563c94.292969-105.296875 85.371094-267.09375-19.925781-361.390625-46.953125-42.042969-107.773437-65.285156-170.800781-65.269531zm0 0" fill="url(#d)"/><path d="m165.949219 468.476562c2.90625-1.453124 4.734375-4.433593 4.71875-7.683593v-25.597657c0-4.714843-3.820313-8.535156-8.535157-8.535156h-34.132812c-4.710938 0-8.53125 3.820313-8.53125 8.535156v17.066407c0 4.710937 3.820312 8.53125 8.53125 8.53125 4.714844 0 8.535156-3.820313 8.535156-8.53125v-8.535157h17.066406v11.792969l-29.414062 14.703125c-2.894531 1.445313-4.722656 4.402344-4.71875 7.636719v25.601563c0 4.710937 3.820312 8.53125 8.53125 8.53125h34.132812c4.714844 0 8.535157-3.820313 8.535157-8.53125 0-4.714844-3.820313-8.535157-8.535157-8.535157h-25.597656v-11.792969zm0 0" fill="url(#e)"/><path d="m230.398438 511.996094c4.714843 0 8.535156-3.820313 8.535156-8.535156v-17.066407h8.53125c4.714844 0 8.535156-3.820312 8.535156-8.535156 0-4.710937-3.820312-8.53125-8.535156-8.53125h-8.53125v-25.601563c0-4.710937-3.820313-8.535156-8.535156-8.535156-4.710938 0-8.53125 3.824219-8.53125 8.535156v25.601563h-17.066407v-34.132813c0-4.714843-3.824219-8.535156-8.535156-8.535156-4.714844 0-8.535156 3.820313-8.535156 8.535156v42.664063c0 4.714844 3.820312 8.535156 8.535156 8.535156h25.601563v17.066407c0 4.714843 3.820312 8.535156 8.53125 8.535156zm0 0" fill="url(#f)"/><path d="m290.667969 432.199219-25.597657 68.265625c-1.65625 4.414062.578126 9.332031 4.988282 10.988281.003906 0 .007812.003906.011718.003906.957032.351563 1.972657.535157 2.996094.539063 3.558594 0 6.746094-2.207032 7.992188-5.539063l25.601562-68.265625c1.648438-4.414062-.59375-9.332031-5.007812-10.980468-4.417969-1.652344-9.332032.59375-10.984375 5.007812zm0 0" fill="url(#g)"/><path d="m334.230469 498.726562c-2.613281 3.921876-1.558594 9.21875 2.363281 11.835938 3.921875 2.613281 9.222656 1.554688 11.835938-2.363281l34.132812-51.199219c.933594-1.40625 1.433594-3.050781 1.433594-4.738281v-17.066407c0-4.710937-3.820313-8.535156-8.53125-8.535156h-42.667969c-4.714844 0-8.535156 3.824219-8.535156 8.535156v17.066407c0 4.714843 3.820312 8.535156 8.535156 8.535156 4.710937 0 8.535156-3.820313 8.535156-8.535156v-8.535157h25.597657v5.972657zm0 0" fill="url(#h)"/></svg>