<svg height="496pt" viewBox="0 0 496 496" width="496pt" xmlns="http://www.w3.org/2000/svg"><path d="m496 349.785156v-43.5625l-20.03125-6.613281c-2.191406-7.730469-5.28125-15.167969-9.207031-22.195313l9.496093-18.855468-30.808593-30.796875-18.855469 9.496093c-7.035156-3.929687-14.472656-7.019531-22.203125-9.210937l-6.605469-20.046875h-43.570312l-2.214844 6.710938v-134.710938h64v-40c0-22.054688-17.945312-40-40-40h-336c-22.054688 0-40 17.945312-40 40v456h352v-54.710938l2.214844 6.710938h43.570312l6.605469-20.03125c7.730469-2.183594 15.160156-5.273438 22.203125-9.207031l18.855469 9.496093 30.808593-30.800781-9.496093-18.855469c3.925781-7.035156 7.015625-14.472656 9.207031-22.195312zm-120-333.785156c13.230469 0 24 10.769531 24 24v24h-320v-24c0-9-2.992188-17.3125-8.015625-24zm-360 464v-440c0-13.230469 10.769531-24 24-24s24 10.769531 24 24v40h272v152.105469c-3.617188 1.511719-7.152344 3.214843-10.59375 5.132812l-18.855469-9.496093-30.808593 30.800781 9.496093 18.855469c-1.917969 3.441406-3.621093 6.976562-5.132812 10.59375h-177.992188l-42.539062 21.265624c-7.132813 3.582032-11.574219 10.757813-11.574219 18.742188s4.441406 15.160156 11.574219 18.734375l42.539062 21.265625h177.984375c1.511719 3.617188 3.214844 7.160156 5.132813 10.59375l-9.496094 18.855469 30.808594 30.796875 18.855469-9.492188c3.441406 1.917969 6.976562 3.628906 10.59375 5.140625v56.105469zm80-132.945312-29.265625-14.628907c-1.6875-.851562-2.734375-2.546875-2.734375-4.425781s1.046875-3.574219 2.734375-4.425781l29.265625-14.628907zm16-11.054688h144v13.785156l6.71875 2.214844h-150.71875zm144-29.785156v13.785156h-144v-16h150.71875zm206.566406 37.753906-1.03125 4.351562c-2.152344 9.105469-5.75 17.777344-10.6875 25.777344l-2.34375 3.804688 8.265625 16.417968-14.449219 14.457032-16.417968-8.265625-3.804688 2.351562c-8 4.9375-16.671875 8.535157-25.777344 10.695313l-4.351562 1.027344-5.753906 17.414062h-20.429688l-5.753906-17.433594-4.351562-1.023437c-9.09375-2.160157-17.769532-5.757813-25.777344-10.695313l-3.804688-2.351562-16.417968 8.265625-14.449219-14.457031 8.265625-16.417969-2.34375-3.808594c-4.945313-8-8.535156-16.671875-10.6875-25.773437l-1.03125-4.351563-17.433594-5.738281v-20.4375l17.433594-5.753906 1.03125-4.351563c2.152344-9.105469 5.75-17.777344 10.6875-25.777344l2.34375-3.804687-8.265625-16.417969 14.449219-14.449219 16.417968 8.265625 3.804688-2.34375c8-4.945312 16.671875-8.535156 25.777344-10.6875l4.351562-1.03125 5.753906-17.425781h20.429688l5.753906 17.433594 4.351562 1.03125c9.105469 2.160156 17.777344 5.75 25.777344 10.6875l3.804688 2.34375 16.417968-8.265625 14.449219 14.449219-8.265625 16.417968 2.34375 3.804688c4.945313 8 8.535156 16.671875 10.6875 25.777344l1.03125 4.351562 17.433594 5.753906v20.4375zm0 0"/><path d="m376 256c-39.695312 0-72 32.296875-72 72s32.304688 72 72 72 72-32.296875 72-72-32.304688-72-72-72zm0 128c-30.878906 0-56-25.128906-56-56s25.121094-56 56-56 56 25.128906 56 56-25.121094 56-56 56zm0 0"/><path d="m320 96h-160v112h160zm-16 96h-128v-80h128zm0 0"/><path d="m144 112h-16v80h-16v-32h-16v32h-16v-72h-16v72h-16v-48h-16v64h112zm0 0"/><path d="m192 128h96v16h-96zm0 0"/><path d="m192 160h96v16h-96zm0 0"/><path d="m32 224h144v16h-144zm0 0"/><path d="m32 256h144v16h-144zm0 0"/><path d="m32 384h224v16h-224zm0 0"/><path d="m32 416h224v16h-224zm0 0"/><path d="m32 448h256v16h-256zm0 0"/><path d="m304 448h16v16h-16zm0 0"/></svg>