<svg height="480pt" viewBox="0 -40 480.00002 480" width="480pt" xmlns="http://www.w3.org/2000/svg" xmlns:xlink="http://www.w3.org/1999/xlink"><linearGradient id="a"><stop offset="0" stop-color="#e93e3a"/><stop offset=".35" stop-color="#ed683c"/><stop offset=".7" stop-color="#f3903f"/><stop offset="1" stop-color="#fdc70c"/></linearGradient><linearGradient id="b" gradientUnits="userSpaceOnUse" x1="272" x2="272" xlink:href="#a" y1="409.96001" y2="-7.43199"/><linearGradient id="c" gradientUnits="userSpaceOnUse" x1="240" x2="240" xlink:href="#a" y1="409.96001" y2="-7.43199"/><linearGradient id="d" gradientUnits="userSpaceOnUse" x1="208" x2="208" xlink:href="#a" y1="409.96001" y2="-7.43199"/><linearGradient id="e" gradientUnits="userSpaceOnUse" x1="264" x2="264" xlink:href="#a" y1="409.96001" y2="-7.43199"/><linearGradient id="f" gradientUnits="userSpaceOnUse" x1="328" x2="328" xlink:href="#a" y1="409.96001" y2="-7.43199"/><path d="m304 264h-24v-104h-16v16h-16v16h16v72h-24v16h64zm0 0" fill="url(#b)"/><path d="m472 304h-32v-296c0-4.417969-3.582031-8-8-8h-408c-13.253906 0-24 10.746094-24 24v360c0 8.835938 7.164062 16 16 16h424c10.613281.011719 20.792969-4.199219 28.296875-11.703125s11.714844-17.683594 11.703125-28.296875v-48c0-4.417969-3.582031-8-8-8zm-48-192h-312v-96h312zm-408-88c0-4.417969 3.582031-8 8-8h72v96h-80zm0 104h80v256h-16v-232h-16v232h-16v-232h-16v232h-16zm96 232v-232h312v176h-256c-4.417969 0-8 3.582031-8 8v48c0 13.253906-10.746094 24-24 24s-24-10.746094-24-24zm352 0c.011719 6.367188-2.511719 12.480469-7.015625 16.984375s-10.617187 7.027344-16.984375 7.015625h-272.199219c5.277344-6.890625 8.160157-15.320312 8.199219-24v-40h288zm0 0" fill="url(#c)"/><path d="m224 88v-56h-16v48h-16v16h24c4.417969 0 8-3.582031 8-8zm0 0" fill="url(#d)"/><path d="m256 72h16v24h16v-48c0-8.835938-7.164062-16-16-16h-16c-8.835938 0-16 7.164062-16 16v48h16zm16-24v8h-16v-8zm0 0" fill="url(#e)"/><path d="m320 66.398438 17.34375 26.015624c1.953125 2.929688 5.59375 4.238282 8.964844 3.222657s5.683594-4.117188 5.691406-7.636719v-56h-16v29.601562l-17.34375-26.042968c-1.957031-2.933594-5.601562-4.238282-8.976562-3.214844-3.375 1.019531-5.679688 4.128906-5.679688 7.65625v56h16zm0 0" fill="url(#f)"/></svg>