<svg height="422pt" viewBox="0 -10 422.00227 422" width="422pt" xmlns="http://www.w3.org/2000/svg" xmlns:xlink="http://www.w3.org/1999/xlink"><linearGradient id="a"><stop offset="0" stop-color="#00efd1"/><stop offset="1" stop-color="#00acea"/></linearGradient><linearGradient id="b" gradientUnits="userSpaceOnUse" x1="211.001136" x2="211.001136" xlink:href="#a" y1="-36.287865" y2="423.385135"/><linearGradient id="c" gradientUnits="userSpaceOnUse" x1="140.572136" x2="140.572136" xlink:href="#a" y1="-36.287865" y2="423.385135"/><linearGradient id="d" gradientUnits="userSpaceOnUse" x1="209.851136" x2="209.851136" xlink:href="#a" y1="-36.287865" y2="423.385135"/><linearGradient id="e" gradientUnits="userSpaceOnUse" x1="280.501136" x2="280.501136" xlink:href="#a" y1="-36.287865" y2="423.385135"/><linearGradient id="f" gradientUnits="userSpaceOnUse" x1="193.001136" x2="193.001136" xlink:href="#a" y1="-36.287865" y2="423.385135"/><linearGradient id="g" gradientUnits="userSpaceOnUse" x1="244.125136" x2="244.125136" xlink:href="#a" y1="-36.287865" y2="423.385135"/><path d="m374.453125 36h-36.453125v-28c0-4.417969-3.582031-8-8-8s-8 3.582031-8 8v28h-217v-28c0-4.417969-3.582031-8-8-8s-8 3.582031-8 8v28h-41.449219c-12.648437-.035156-24.789062 4.988281-33.714843 13.945312-8.929688 8.960938-13.9101568 21.113282-13.835938 33.761719v270.292969c-.0859375 12.679688 4.878906 24.871094 13.804688 33.878906 8.921874 9.007813 21.066406 14.089844 33.746093 14.121094h326.898438c12.679687-.03125 24.824219-5.113281 33.75-14.121094 8.921875-9.007812 13.890625-21.199218 13.800781-33.878906v-270.292969c.078125-12.648437-4.902344-24.800781-13.832031-33.761719-8.929688-8.957031-21.066407-13.980468-33.714844-13.945312zm31.546875 318c.09375 8.4375-3.1875 16.5625-9.109375 22.570312-5.925781 6.007813-14 9.402344-22.4375 9.429688h-326.902344c-8.4375-.027344-16.515625-3.421875-22.4375-9.429688-5.925781-6.007812-9.203125-14.132812-9.113281-22.570312v-191h390zm-390-207v-63.292969c-.082031-8.40625 3.210938-16.496093 9.140625-22.453125 5.929687-5.960937 14.003906-9.292968 22.410156-9.253906h41.449219v27.417969c0 4.417969 3.582031 8 8 8s8-3.582031 8-8v-27.417969h217v27.417969c0 4.417969 3.582031 8 8 8s8-3.582031 8-8v-27.417969h36.453125c8.40625-.039062 16.476563 3.292969 22.40625 9.253906 5.933594 5.957032 9.222656 14.046875 9.140625 22.453125v63.292969zm0 0" fill="url(#b)"/><path d="m141.152344 268.027344c13.097656 0 23.847656-6.402344 23.847656-23.601563v-45.300781c0-3.199219-3.097656-5.121094-6.5-5.121094h-17.5c-3.300781 0-4.699219 3.703125-4.699219 6.902344 0 3.699219 1.699219 7.097656 4.699219 7.097656h9v36.425782c0 6.800781-3.449219 10-9.25 10-8 0-8.574219-6.101563-8.875-10-.300781-3.699219-3.738281-4.699219-7.738281-4.699219-5.398438 0-8 1.398437-8 7.398437.007812 13.296875 10.714843 20.898438 25.015625 20.898438zm0 0" fill="url(#c)"/><path d="m190.800781 267.425781c2.5 0 4.5-.8125 5.101563-2.914062l3.398437-12.511719h21.101563l3.398437 12.511719c.601563 2.101562 2.601563 2.910156 5.101563 2.910156 4.296875 0 10-2.703125 10-6.402344-.027344-.371093-.09375-.742187-.203125-1.097656l-18.699219-61c-1.097656-3.5-5.597656-5.203125-10.199219-5.203125-4.601562 0-9.101562 1.703125-10.199219 5.203125l-18.601562 61c-.105469.355469-.171875.726563-.199219 1.097656 0 3.707031 5.699219 6.40625 10 6.40625zm19-54.226562 7.300781 26.800781h-14.601562zm0 0" fill="url(#d)"/><path d="m262.5 267.425781c3.902344 0 7.5-1.601562 7.5-4.800781v-34l19.152344 34.601562c1.898437 3.5 5.273437 4.199219 8.875 4.199219 3.898437 0 7.972656-1.601562 7.972656-4.800781v-63.597656c0-3.300782-4.097656-4.703125-8-4.703125-3.898438 0-8 1.402343-8 4.703125v34l-16.097656-30.902344c-3.800782-7.300781-5.703125-7.800781-11.300782-7.800781-3.902343 0-7.601562 1.5-7.601562 4.800781v63.5c0 3.199219 3.601562 4.800781 7.5 4.800781zm0 0" fill="url(#e)"/><path d="m192.949219 358.027344c13.800781 0 25.050781-6.402344 25.050781-23.601563v-26.5c0-17.199219-11.246094-23.601562-25.050781-23.601562-13.800781 0-24.949219 6.402343-24.949219 23.601562v26.5c0 17.199219 11.148438 23.601563 24.949219 23.601563zm-8.949219-50.101563c0-6.898437 3.351562-10 8.949219-10 5.601562 0 9.050781 3.101563 9.050781 10v26.5c0 6.898438-3.449219 10-9.050781 10-5.597657 0-8.949219-3.101562-8.949219-10zm0 0" fill="url(#f)"/><path d="m231.25 298.121094c0 3.101562 2 6.199218 4.898438 6.199218.964843-.007812 1.910156-.285156 2.726562-.796874l3.125-1.800782v50.898438c0 3.199218 3.601562 4.800781 7.5 4.800781 3.902344 0 7.5-1.601563 7.5-4.800781v-63.597656c0-3-3.625-4.902344-6.824219-4.902344-1.003906-.042969-1.996093.203125-2.863281.699218l-13.183594 8c-1.851562 1.117188-2.953125 3.144532-2.878906 5.300782zm0 0" fill="url(#g)"/></svg>