<svg height="496pt" viewBox="0 0 496 496" width="496pt" xmlns="http://www.w3.org/2000/svg" xmlns:xlink="http://www.w3.org/1999/xlink"><linearGradient id="a" gradientUnits="userSpaceOnUse" x1="248" x2="248" y1="496" y2="0"><stop offset="0" stop-color="#9f2fff"/><stop offset="1" stop-color="#0bb1d3"/></linearGradient><path d="m272 280h16v16h-16v16h-16v-16h-16v-16h16v-16h16zm184-208h40v80h-40v22.113281l20.945312 41.886719h-89.890624l20.945312-41.886719v-22.113281h-20.449219c-5.550781 9.519531-15.757812 16-27.550781 16h-1.761719l-29.039062 116.183594 118.800781 71.289062v60.527344h12.945312l16 32h19.054688v48h-256v-48h19.054688l16-32h11.183593l-12.949219-64.753906c-3.042968.449218-6.128906.753906-9.289062.753906-35.289062 0-64-28.710938-64-64 0-13.023438 3.929688-25.136719 10.640625-35.246094l26.480469-84.753906h-5.121094c-17.648438 0-32-14.351562-32-32h-40v32h-120c-22.054688 0-40-17.945312-40-40v-8h88v-16h-88v-8c0-22.054688 17.945312-40 40-40h120v32h40c0-17.648438 14.351562-32 32-32h128c11.792969 0 22 6.480469 27.550781 16h20.449219v-30.113281l-20.945312-41.886719h89.890624l-20.945312 41.886719zm-368 16h56v-16h-104c-10.433594 0-19.328125 6.6875-22.632812 16zm56 48h-126.632812c3.304687 9.3125 12.199218 16 22.632812 16h104zm56-16v-16h-96v16zm64 216c26.472656 0 48-21.527344 48-48s-21.527344-48-48-48-48 21.527344-48 48 21.527344 48 48 48zm24.761719 11.007812 5.09375 25.480469 85.578125-39.496093-52.839844-31.703126c-4.386719 20.671876-18.761719 37.6875-37.832031 45.71875zm106.589843-3.742187-98.273437 45.351563 4.800781 24.007812 120.800782-53.6875-27.792969-16.679688zm84.648438 120.734375h-224v16h224zm-28.945312-32h-166.109376l-8 16h182.109376zm-19.054688-16v-43.6875l-98.304688 43.6875zm-90.238281-248h-87.882813l-19.839844 63.488281c8.945313-4.769531 19.136719-7.488281 29.960938-7.488281 23.832031 0 44.617188 13.121094 55.632812 32.488281zm34.238281-80c0-8.824219-7.175781-16-16-16h-128c-8.824219 0-16 7.175781-16 16v48c0 8.824219 7.175781 16 16 16h128c8.824219 0 16-7.175781 16-16zm36.945312-72 8 16h22.109376l8-16zm38.109376 184-8-16h-22.109376l-8 16zm-11.054688-48h-16v16h16zm40-16v-16h-88v16zm-88-48v16h88v-16zm48-16v-24h-16v24zm-152 40c0 13.230469-10.769531 24-24 24s-24-10.769531-24-24 10.769531-24 24-24 24 10.769531 24 24zm-16 0c0-4.40625-3.585938-8-8-8s-8 3.59375-8 8 3.585938 8 8 8 8-3.59375 8-8zm80 0c0 13.230469-10.769531 24-24 24s-24-10.769531-24-24 10.769531-24 24-24 24 10.769531 24 24zm-16 0c0-4.40625-3.585938-8-8-8s-8 3.59375-8 8 3.585938 8 8 8 8-3.59375 8-8zm-315.878906 313.121094-20.121094-1.808594v-46.625l20.121094-1.808594c1.214844-3.695312 2.710937-7.304687 4.464844-10.773437l-12.945313-15.503907 32.96875-32.976562 15.503906 12.949219c3.480469-1.75 7.078125-3.238281 10.78125-4.460938l1.792969-20.113281h46.625l1.808594 20.121094c3.703125 1.222656 7.304687 2.710937 10.78125 4.464844l15.503906-12.953126 32.96875 32.976563-12.941406 15.503906c1.75 3.472657 3.238281 7.070313 4.460937 10.773438l20.105469 1.800781v46.625l-20.121094 1.808594c-1.214844 3.695312-2.710937 7.304687-4.464844 10.773437l12.945313 15.503907-32.96875 32.976562-15.503906-12.949219c-3.480469 1.75-7.078125 3.238281-10.78125 4.460938l-1.792969 20.113281h-46.625l-1.808594-20.121094c-3.703125-1.222656-7.304687-2.710937-10.78125-4.464844l-15.503906 12.953126-32.96875-32.976563 12.941406-15.503906c-1.734375-3.460938-3.230468-7.0625-4.445312-10.765625zm-4.121094-16.433594 16.632812 1.496094 1.390626 5.503906c1.511718 6.007812 3.886718 11.746094 7.066406 17.046875l2.910156 4.875-10.710938 12.824219 12.277344 12.285156 12.832032-10.71875 4.867187 2.910156c5.292969 3.167969 11.03125 5.546875 17.054687 7.066406l5.503907 1.390626 1.488281 16.632812h17.375l1.496094-16.632812 5.503906-1.390626c6.023438-1.519531 11.761719-3.898437 17.054688-7.066406l4.859374-2.910156 12.832032 10.710938 12.277344-12.285157-10.710938-12.816406 2.910156-4.875c3.167969-5.300781 5.546875-11.039063 7.066406-17.046875l1.390626-5.503906 16.632812-1.496094v-17.375l-16.632812-1.496094-1.390626-5.503906c-1.511718-6.007812-3.886718-11.746094-7.066406-17.046875l-2.910156-4.875 10.710938-12.824219-12.277344-12.285156-12.832032 10.71875-4.867187-2.910156c-5.292969-3.167969-11.03125-5.546875-17.054687-7.066406l-5.503907-1.390626-1.488281-16.632812h-17.375l-1.496094 16.632812-5.503906 1.390626c-6.023438 1.519531-11.761719 3.898437-17.054688 7.066406l-4.859374 2.910156-12.832032-10.710938-12.277344 12.285157 10.710938 12.816406-2.910156 4.875c-3.167969 5.300781-5.546875 11.039063-7.066406 17.046875l-1.390626 5.503906-16.632812 1.496094zm32-8.6875c0-26.472656 21.527344-48 48-48s48 21.527344 48 48-21.527344 48-48 48-48-21.527344-48-48zm16 0c0 17.648438 14.351562 32 32 32s32-14.351562 32-32-14.351562-32-32-32-32 14.351562-32 32zm40-216h-16v16h16zm-16 48h16v-16h-16zm0 32h16v-16h-16zm0 0" fill="url(#a)"/></svg>