<svg height="431pt" viewBox="-127 1 431 431.99829" width="431pt" xmlns="http://www.w3.org/2000/svg" xmlns:xlink="http://www.w3.org/1999/xlink"><linearGradient id="a" gradientUnits="userSpaceOnUse" x1="-22.332855" x2="199.331145" y1="329.166292" y2="107.510292"><stop offset="0" stop-color="#41dfd0"/><stop offset="1" stop-color="#ee83ef"/></linearGradient><path d="m88.5 184c17.671875 0 32-14.328125 32-32 0-17.675781-14.328125-32-32-32-17.675781 0-32 14.324219-32 32 0 17.671875 14.324219 32 32 32zm0-48c8.835938 0 16 7.160156 16 16 0 8.835938-7.164062 16-16 16s-16-7.164062-16-16c0-8.839844 7.164062-16 16-16zm-86.25 99c-1.132812 1.417969-1.75 3.179688-1.75 5v32c0 1.816406.617188 3.578125 1.75 5l6.25 7.796875v43.203125h16v-23.203125l9.75 12.195313c1.519531 1.898437 3.816406 3.003906 6.25 3.007812.902344-.003906 1.796875-.15625 2.648438-.449219 3.207031-1.125 5.351562-4.152343 5.351562-7.550781v-32h16v8c0 1.578125.46875 3.121094 1.34375 4.4375l14.65625 21.960938v21.601562h16v-21.601562l14.65625-21.984376c.867188-1.308593 1.335938-2.84375 1.34375-4.414062v-8h16v32c-.003906 3.398438 2.144531 6.425781 5.351562 7.550781.851563.292969 1.746094.445313 2.648438.449219 2.429688 0 4.726562-1.105469 6.246094-3l9.753906-12.203125v23.203125h16v-43.203125l6.246094-7.804687c1.132812-1.417969 1.753906-3.179688 1.753906-4.992188v-32c0-1.820312-.617188-3.582031-1.753906-5l-30.246094-37.808594v-3.898437l7.582031-22.765625c.273438-.816406.414063-1.667969.417969-2.527344v-72c.058594-22.625-8.929688-44.332031-24.96875-60.289062l-33.375-33.367188c-3.125-3.125-8.1875-3.125-11.3125 0l-33.375 33.367188c-16.039062 15.957031-25.03125 37.664062-24.96875 60.289062v72c0 .859375.140625 1.710938.414062 2.527344l7.585938 22.765625v3.898437zm30.25 37v17.191406l-16-20v-26.402344l16-20zm112 0v-49.195312l16 20v26.402343l-16 20zm-48 13.597656-8 12-8-12v-35.710937l8-16 8 16zm-35.722656-238.574218 27.722656-27.714844 27.71875 27.714844c11.070312 11.007812 18.0625 25.460937 19.824219 40.976562h-95.085938c1.761719-15.515625 8.753907-29.96875 19.820313-40.976562zm-20.277344 56.976562h96v62.703125l-7.585938 22.765625c-.273437.816406-.414062 1.671875-.414062 2.53125v72h-16v-16c.011719-1.238281-.261719-2.464844-.800781-3.578125l-16-32c-1.503907-2.523437-4.222657-4.066406-7.160157-4.066406s-5.65625 1.542969-7.160156 4.066406l-16 32c-.566406 1.109375-.867187 2.332031-.878906 3.578125v16h-16v-72c-.003906-.859375-.144531-1.714844-.417969-2.53125l-7.582031-22.765625zm24 248h-16v-16h16zm-16 16h16v16h-16zm32 48h16v16h-16zm32-48h16v16h-16zm16-16h-16v-16h16zm-32 16h-16v-16h16zm0 32h-16v-16h16zm56-56h16v16h-16zm-144 0h16v16h-16zm0 0" fill="url(#a)"/></svg>