<svg height="467pt" viewBox="-35 0 467 467.67207" width="467pt" xmlns="http://www.w3.org/2000/svg" xmlns:xlink="http://www.w3.org/1999/xlink"><linearGradient id="a"><stop offset="0" stop-color="#00efd1"/><stop offset="1" stop-color="#00acea"/></linearGradient><linearGradient id="b" gradientUnits="userSpaceOnUse" x1="201.391035" x2="201.391035" xlink:href="#a" y1="-3.452929" y2="478.429071"/><linearGradient id="c" gradientUnits="userSpaceOnUse" x1="201.390035" x2="201.390035" xlink:href="#a" y1="-3.452929" y2="478.429071"/><linearGradient id="d" gradientUnits="userSpaceOnUse" x1="201.802035" x2="201.802035" xlink:href="#a" y1="-3.452929" y2="478.429071"/><linearGradient id="e" gradientUnits="userSpaceOnUse" x1="236.581035" x2="236.581035" xlink:href="#a" y1="-3.452929" y2="478.429071"/><linearGradient id="f" gradientUnits="userSpaceOnUse" x1="166.199035" x2="166.199035" xlink:href="#a" y1="-3.452929" y2="478.429071"/><linearGradient id="g" gradientUnits="userSpaceOnUse" x1="199.302035" x2="199.302035" xlink:href="#a" y1="-3.452929" y2="478.429071"/><linearGradient id="h" gradientUnits="userSpaceOnUse" x1="199.300035" x2="199.300035" xlink:href="#a" y1="-3.452929" y2="478.429071"/><path d="m103.148438 231.285156c1.304687.863282 2.835937 1.320313 4.398437 1.320313 1.347656 0 2.671875-.320313 3.867187-.9375l35.386719-18.78125v15.949219c-.046875 2.097656.75 4.128906 2.214844 5.636718 1.464844 1.503906 3.472656 2.355469 5.574219 2.363282h3.210937v25.339843c.03125 2.09375.90625 4.085938 2.425781 5.53125 1.519532 1.441407 3.558594 2.207031 5.652344 2.128907h71.023438c2.074218.074218 4.089844-.703126 5.582031-2.148438s2.328125-3.4375 2.316406-5.511719v-25.339843h3.390625c2.082032-.015626 4.070313-.875 5.503906-2.382813 1.433594-1.511719 2.195313-3.535156 2.105469-5.617187v-15.949219l35.476563 18.78125c1.191406.617187 2.511718.9375 3.855468.9375 1.578126 0 3.125-.457031 4.453126-1.320313 2.449218-1.609375 3.828124-4.429687 3.589843-7.351562l-3.207031-38.183594c-2.347656-27.695312-15.425781-53.378906-36.445312-71.570312l-7.722657-6.570313v-18.152344c.046875-15.679687-5.132812-30.933593-14.714843-43.34375l-33.484376-43.035156c-1.5-1.941406-3.816406-3.078125-6.269531-3.078125s-4.769531 1.136719-6.269531 3.078125l-33.46875 43.035156c-9.605469 12.40625-14.808594 27.65625-14.792969 43.34375v18.152344l-7.640625 6.570313c-20.980468 18.203124-34.007812 43.890624-36.308594 71.570312l-3.25 38.1875c-.253906 2.914062 1.105469 5.734375 3.546876 7.347656zm59.652343-10.449218v-46h77v46zm66 33h-55v-17h55zm55.042969-66.742188 1.886719 23.546875-29.929688-15.878906v-65.800781c17 15.347656 26.160157 35.835937 28.042969 58.132812zm-109.625-131.136719 27.222656-34.953125 27.0625 34.953125c7.382813 9.601563 11.359375 21.386719 11.296875 33.5v69.378907h-77v-69.378907c-.019531-12.125 4-23.910156 11.417969-33.5zm-55.371094 131.136719c1.914063-22.136719 11.855469-42.8125 27.953125-58.128906v65.800781l-29.882812 15.878906zm0 0" fill="url(#b)"/><path d="m201.390625 124.882812h.175781c14.820313-.328124 26.875-12.460937 26.875-27.046874 0-14.941407-12.109375-27.050782-27.050781-27.054688-14.9375 0-27.050781 12.113281-27.050781 27.050781 0 14.941407 12.109375 27.054688 27.050781 27.054688zm0-38.101562c6.101563 0 11.050781 4.949219 11.050781 11.050781 0 6.101563-4.945312 11.050781-11.050781 11.050781-6.101563 0-11.050781-4.945312-11.050781-11.046874.152344-6.039063 5.011718-10.898438 11.050781-11.054688zm0 0" fill="url(#c)"/><path d="m193.800781 288.21875v46.628906c0 4.417969 3.582031 8 8 8s8-3.582031 8-8v-46.628906c0-4.417969-3.582031-8-8-8s-8 3.582031-8 8zm0 0" fill="url(#d)"/><path d="m228.921875 280.644531c-4.183594 1.421875-6.421875 5.96875-5 10.152344l10.171875 29.925781c.898438 2.734375 3.195312 4.773438 6.015625 5.34375 2.820313.570313 5.730469-.417968 7.617187-2.589844 1.890626-2.167968 2.46875-5.1875 1.515626-7.902343l-10.171876-29.929688c-1.421874-4.183593-5.96875-6.421875-10.148437-5zm0 0" fill="url(#e)"/><path d="m163.710938 285.644531-10.171876 29.929688c-1.421874 4.183593.816407 8.726562 5 10.148437 4.183594 1.421875 8.726563-.816406 10.148438-5l10.171875-29.925781c1.421875-4.183594-.816406-8.730469-5-10.152344-4.179687-1.421875-8.726563.816407-10.148437 5zm0 0" fill="url(#f)"/><path d="m390.273438 429.910156c-18.390626 0-27.929688 6.523438-36.347657 12.277344-7.441406 5.089844-13.871093 9.484375-27.3125 9.484375-13.441406 0-19.871093-4.398437-27.316406-9.484375-8.417969-5.753906-17.957031-12.277344-36.347656-12.277344-18.386719 0-27.925781 6.523438-36.339844 12.277344-7.445313 5.089844-13.875 9.484375-27.316406 9.484375-13.441407 0-19.867188-4.398437-27.308594-9.484375-8.417969-5.753906-17.957031-12.277344-36.34375-12.277344-18.390625 0-27.925781 6.527344-36.339844 12.277344-7.441406 5.089844-13.871093 9.484375-27.308593 9.484375s-19.871094-4.398437-27.3125-9.484375c-8.417969-5.753906-17.957032-12.277344-36.34375-12.277344-4.417969 0-8 3.582032-8 8 0 4.417969 3.582031 8 8 8 13.441406 0 19.867187 4.398438 27.3125 9.484375 8.417968 5.753907 17.957031 12.277344 36.34375 12.277344 18.386718 0 27.925781-6.523437 36.339843-12.277344 7.445313-5.089843 13.871094-9.484375 27.3125-9.484375 13.441407 0 19.867188 4.398438 27.3125 9.484375 8.414063 5.753907 17.953125 12.277344 36.34375 12.277344 18.386719 0 27.925781-6.523437 36.34375-12.277344 7.441407-5.089843 13.871094-9.484375 27.3125-9.484375 13.4375 0 19.871094 4.398438 27.3125 9.484375 8.417969 5.753907 17.960938 12.277344 36.347657 12.277344 18.390624 0 27.929687-6.523437 36.347656-12.277344 7.441406-5.089843 13.871094-9.484375 27.3125-9.484375 4.417968 0 8-3.582031 8-8 0-4.417968-3.582032-8-8-8zm0 0" fill="url(#g)"/><path d="m71.988281 413.265625c18.382813 0 27.921875-6.523437 36.339844-12.277344 7.445313-5.089843 13.871094-9.484375 27.3125-9.484375 13.4375 0 19.867187 4.394532 27.308594 9.484375 8.417969 5.753907 17.957031 12.277344 36.34375 12.277344s27.929687-6.523437 36.347656-12.277344c7.441406-5.089843 13.871094-9.484375 27.308594-9.484375 13.441406 0 19.871093 4.394532 27.316406 9.484375 8.417969 5.753907 17.957031 12.277344 36.347656 12.277344 4.417969 0 8-3.582031 8-8s-3.582031-8-8-8c-13.441406 0-19.871093-4.402344-27.316406-9.488281-8.417969-5.753906-17.957031-12.273438-36.347656-12.273438-18.386719 0-27.925781 6.519532-36.339844 12.273438-7.445313 5.089844-13.875 9.488281-27.316406 9.488281-13.441407 0-19.867188-4.402344-27.308594-9.488281-8.417969-5.753906-17.957031-12.273438-36.34375-12.273438-18.390625 0-27.925781 6.519532-36.34375 12.273438-7.441406 5.089844-13.871094 9.488281-27.308594 9.488281-4.417969 0-8 3.582031-8 8s3.582031 8 8 8zm0 0" fill="url(#h)"/></svg>