<svg height="489pt" viewBox="0 0 489 489.3" width="489pt" xmlns="http://www.w3.org/2000/svg" xmlns:xlink="http://www.w3.org/1999/xlink"><linearGradient id="a"><stop offset="0" stop-color="#00efd1"/><stop offset="1" stop-color="#00acea"/></linearGradient><linearGradient id="b" gradientTransform="matrix(1 0 0 -1 -11.649673 502.7)" gradientUnits="userSpaceOnUse" x1="256.001" x2="256.001" xlink:href="#a" y1="490" y2="29.149"/><linearGradient id="c" gradientTransform="matrix(1 0 0 -1 -11.649673 502.7)" gradientUnits="userSpaceOnUse" x1="372.388" x2="372.388" xlink:href="#a" y1="490" y2="29.149"/><path d="m406.449219 225.800781 1.101562-157.800781c.109375-15.296875-12.203125-27.789062-27.5-27.898438l-23.402343-.203124.203124-27.796876c.011719-2.640624-1.019531-5.179687-2.878906-7.054687-1.855468-1.875-4.382812-2.933594-7.023437-2.945313l-61.800781-.402343h-.097657c-5.46875-.054688-9.945312 4.332031-10 9.800781l-.199219 27.800781-139.703124-1 .203124-27.800781c.015626-5.546875-4.457031-10.058594-10-10.101562l-61.601562-.398438c-5.5 0-9.992188 4.398438-10.101562 9.898438l-.199219 27.800781h-23.5c-7.300781-.015625-14.3125 2.863281-19.5 8-5.265625 5.121093-8.222657 12.15625-8.199219 19.5l-2.101562 304.199219c-.035157 7.367187 2.839843 14.445312 8 19.703124 5.136718 5.253907 12.15625 8.238282 19.5 8.296876l193.902343 1.300781c6.796875 18.644531 17.542969 35.597656 31.5 49.699219 25.539063 26.089843 60.488281 40.828124 97 40.902343h1c65-.121093 121.054688-45.703125 134.425781-109.3125 13.375-63.609375-19.578124-127.902343-79.027343-154.1875zm-54.597657-11.601562h-1c-4.101562 0-8.101562.199219-12.101562.5l-25.800781-.199219.402343-58.800781 73.5.5-.402343 58.800781-21.5-.101562c-4.300781-.398438-8.699219-.699219-13.097657-.699219zm-237.601562 77.800781.398438-58.800781 79.101562.5-.398438 58.800781zm79 20.5-.398438 65.898438-79.101562-.5.398438-65.898438zm100.101562-156.800781-.402343 58.800781-79.097657-.5.398438-58.800781zm-99.5 58-79.101562-.5.398438-58.800781 79.101562.5zm-99.101562-.597657-73.5-.5.398438-58.800781 73.5.5zm-.101562 20-.398438 58.796876-73.5-.5.398438-58.796876zm119.101562.796876 65.5.402343c-9.003906 5.542969-17.359375 12.085938-24.898438 19.5-11.417968 11.261719-20.792968 24.425781-27.703124 38.898438l-13.296876-.097657zm81.300781-212.199219 41.597657.300781-.398438 61.300781-41.601562-.300781zm-221.300781-1.5 41.601562.300781-.402343 61.300781-41.597657-.300781zm-49.199219 39.699219c1.453125-1.394532 3.386719-2.179688 5.398438-2.199219h.101562l23.398438.199219-.199219 33.5c-.027344 2.660156 1.019531 5.222656 2.898438 7.101562 1.882812 1.882812 4.441406 2.925781 7.101562 2.898438l61.601562.300781h.097657c2.628906.039062 5.164062-.976563 7.042969-2.816407 1.878906-1.839843 2.941406-4.355468 2.957031-6.984374l.199219-33.5 139.703124 1-.203124 33.5c-.042969 5.539062 4.367187 10.082031 9.902343 10.203124l61.597657.597657h.101562c5.503906-.132813 9.921875-4.59375 10-10.097657l.199219-33.601562 23.402343.101562c2.054688.003907 4.027344.832032 5.472657 2.296876 1.445312 1.464843 2.246093 3.445312 2.226562 5.5l-.5 68.402343-365.300781-2.5.5-68.402343c-.011719-2.066407.820312-4.050782 2.300781-5.5zm-2.101562 315.101562c-1.410157-1.484375-2.199219-3.453125-2.199219-5.5l.398438-58.199219 73.5.5-.398438 65.898438-65.800781-.398438c-2.070313.027344-4.0625-.804687-5.5-2.300781zm190.300781 3.601562.398438-65.902343h5.800781c-3.632813 12.378906-5.519531 25.203125-5.597657 38.101562-.09375 9.332031.777344 18.648438 2.597657 27.800781zm220.800781 56.796876c-21.921875 21.789062-51.59375 33.980468-82.5 33.902343h-.800781c-62.566406-.378906-113.863281-49.710937-116.691406-112.214843-2.824219-62.503907 43.816406-116.261719 106.089844-122.285157l24.203124.199219c59.097657 6.5 105.097657 56.898438 104.699219 117.601562-.203125 31.152344-12.796875 60.945313-35 82.796876zm0 0" fill="url(#b)"/><path d="m357.550781 360.800781.300781-49c.054688-5.523437-4.378906-10.046875-9.902343-10.101562-5.523438-.054688-10.042969 4.378906-10.097657 9.902343l-.402343 53.097657c-.027344 2.660156 1.019531 5.21875 2.902343 7.101562l26.597657 26.898438c3.867187 3.921875 10.179687 3.964843 14.101562.101562 3.921875-3.867187 3.964844-10.179687.097657-14.101562zm0 0" fill="url(#c)"/></svg>