<svg height="512.00107pt" viewBox="0 0 512.00107 512.00107" width="512.00107pt" xmlns="http://www.w3.org/2000/svg" xmlns:xlink="http://www.w3.org/1999/xlink"><linearGradient id="a"><stop offset="0" stop-color="#662d91"/><stop offset=".437" stop-color="#3873b3"/><stop offset="1" stop-color="#00c9dd"/></linearGradient><linearGradient id="b" gradientTransform="matrix(1.066829 0 0 -1.066829 0 507.813123)" gradientUnits="userSpaceOnUse" x1="20.6609" x2="452.7312" xlink:href="#a" y1="459.341" y2="27.2706"/><linearGradient id="c" gradientTransform="matrix(1.066829 0 0 -1.066829 0 507.813123)" gradientUnits="userSpaceOnUse" x1="22.6606" x2="454.7309" xlink:href="#a" y1="461.3407" y2="29.2703"/><linearGradient id="d" gradientTransform="matrix(1.066829 0 0 -1.066829 0 507.813123)" gradientUnits="userSpaceOnUse" x1="54.6557" x2="486.726" xlink:href="#a" y1="493.3358" y2="61.2654"/><linearGradient id="e" gradientTransform="matrix(1.066829 0 0 -1.066829 0 507.813123)" gradientUnits="userSpaceOnUse" x1="-9.3346" x2="422.7358" xlink:href="#a" y1="429.3455" y2="-2.7248"/><path d="m17.066406 512h17.066406v-17.066406h435.203126v17.066406h17.066406v-17.066406h25.597656v-17.066406h-25.597656v-452.265626h25.597656v-17.066406h-25.597656v-8.535156h-17.066406v8.535156h-59.734376v93.4375c-43.578124-4.429687-76.75-41.101562-76.800781-84.90625v-8.53125h-298.667969v-8.535156h-17.066406v8.535156h-17.066406v17.066406h17.066406v452.265626h-17.066406v17.066406h17.066406zm247.464844-34.132812v-51.199219h153.601562v-145.066407h51.199219v196.265626zm51.550781-452.265626c4.503907 53.027344 48.828125 93.800782 102.050781 93.863282h8.535157v-93.863282h42.664062v238.929688h-68.265625v145.066406h-136.535156v-34.132812h-8.53125c-43.804688-.050782-80.476562-33.21875-84.90625-76.796875h93.4375v-51.203125h-230.398438v-221.863282zm-281.949219 238.929688h213.335938v17.070312h-93.867188v8.53125c.066407 53.222657 40.835938 97.546876 93.867188 102.050782v85.683594h-213.335938zm0 0" fill="url(#b)"/><path d="m179.199219 102.398438h-68.265625v68.265624h68.265625zm-17.066407 51.203124h-34.132812v-34.136718h34.132812zm0 0" fill="url(#c)"/><path d="m170.667969 42.667969h-51.203125v51.199219h51.203125zm-17.066407 34.132812h-17.070312v-17.066406h17.070312zm0 0" fill="url(#d)"/><path d="m238.933594 110.933594h-51.199219v51.199218h51.199219zm-17.066406 34.132812h-17.066407v-17.066406h17.066407zm0 0" fill="url(#d)"/><g fill="url(#e)"><path d="m119.464844 230.398438h51.203125v-51.199219h-51.203125zm17.070312-34.132813h17.066406v17.066406h-17.066406zm0 0"/><path d="m102.398438 162.132812v-51.199218h-51.199219v51.199218zm-34.132813-34.132812h17.066406v17.066406h-17.066406zm0 0"/></g></svg>