<svg height="494pt" viewBox="0 -11 494.14765 494" width="494pt" xmlns="http://www.w3.org/2000/svg" xmlns:xlink="http://www.w3.org/1999/xlink"><linearGradient id="a"><stop offset="0" stop-color="#00efd1"/><stop offset="1" stop-color="#00acea"/></linearGradient><linearGradient id="b" gradientTransform="matrix(1 0 0 -1 -8.854126 494.352825)" gradientUnits="userSpaceOnUse" x1="293.739" x2="293.739" xlink:href="#a" y1="490" y2="25.931"/><linearGradient id="c" gradientTransform="matrix(1 0 0 -1 -8.854126 494.352825)" gradientUnits="userSpaceOnUse" x1="218.262" x2="218.262" xlink:href="#a" y1="490" y2="25.931"/><linearGradient id="d" gradientTransform="matrix(1 0 0 -1 -8.854126 494.352825)" gradientUnits="userSpaceOnUse" x1="255.88" x2="255.88" xlink:href="#a" y1="490" y2="25.931"/><linearGradient id="e" gradientTransform="matrix(1 0 0 -1 -8.854126 494.352825)" gradientUnits="userSpaceOnUse" x1="256" x2="256" xlink:href="#a" y1="490" y2="25.931"/><linearGradient id="f" gradientTransform="matrix(1 0 0 -1 -8.854126 494.352825)" gradientUnits="userSpaceOnUse" x1="254.603" x2="254.603" xlink:href="#a" y1="490" y2="25.931"/><linearGradient id="g" gradientTransform="matrix(1 0 0 -1 -8.854126 494.352825)" gradientUnits="userSpaceOnUse" x1="319.131" x2="319.131" xlink:href="#a" y1="490" y2="25.931"/><linearGradient id="h" gradientTransform="matrix(1 0 0 -1 -8.854126 494.352825)" gradientUnits="userSpaceOnUse" x1="192.52" x2="192.52" xlink:href="#a" y1="490" y2="25.931"/><linearGradient id="i" gradientTransform="matrix(1 0 0 -1 -8.854126 494.352825)" gradientUnits="userSpaceOnUse" x1="250.286" x2="250.286" xlink:href="#a" y1="490" y2="25.931"/><linearGradient id="j" gradientTransform="matrix(1 0 0 -1 -8.854126 494.352825)" gradientUnits="userSpaceOnUse" x1="71.027" x2="71.027" xlink:href="#a" y1="490" y2="25.931"/><linearGradient id="k" gradientTransform="matrix(1 0 0 -1 -8.854126 494.352825)" gradientUnits="userSpaceOnUse" x1="256.001" x2="256.001" xlink:href="#a" y1="490" y2="25.931"/><linearGradient id="l" gradientTransform="matrix(1 0 0 -1 -8.854126 494.352825)" gradientUnits="userSpaceOnUse" x1="440.975" x2="440.975" xlink:href="#a" y1="490" y2="25.931"/><path d="m351.332031 190.988281c1.210938 2.304688 3.597657 3.75 6.203125 3.75h35.835938c-12.65625 76.859375-84.789063 124.140625-146.515625 124.140625-43.917969 0-90.503907-23.628906-118.6875-60.199218-2.359375-3.0625-6.753907-3.632813-9.816407-1.273438s-3.628906 6.753906-1.269531 9.816406c15.898438 20.445313 36.222657 37.019532 59.445313 48.480469 22.667968 11.234375 46.988281 17.171875 70.328125 17.171875 35.675781 0 73.210937-13.917969 102.980469-38.179688 31.5-25.667968 51.859374-61.023437 57.707031-99.960937h39.601562c2.601563 0 4.988281-1.445313 6.199219-3.75 1.210938-2.300781 1.039062-5.085937-.4375-7.226563l-44.804688-64.9375c-1.308593-1.894531-3.460937-3.023437-5.765624-3.023437-2.300782 0-4.453126 1.128906-5.761719 3.023437l-44.804688 64.9375c-1.480469 2.140626-1.648437 4.929688-.4375 7.230469zm51.007813-55.863281 31.472656 45.609375h-62.945312zm0 0" fill="url(#b)"/><path d="m86.191406 214.121094c1.304688 1.894531 3.460938 3.023437 5.761719 3.023437s4.453125-1.128906 5.761719-3.023437l44.808594-64.933594c1.476562-2.140625 1.644531-4.925781.4375-7.230469-1.210938-2.304687-3.597657-3.746093-6.199219-3.746093h-35.835938c12.65625-76.859376 84.789063-124.140626 146.511719-124.140626 43.921875 0 90.507812 23.628907 118.6875 60.199219 2.359375 3.0625 6.757812 3.632813 9.820312 1.273438 3.058594-2.363281 3.628907-6.757813 1.269532-9.820313-15.898438-20.441406-36.222656-37.015625-59.445313-48.476562-22.667969-11.234375-46.988281-17.1718752-70.332031-17.1718752-35.671875 0-73.207031 13.9140622-102.980469 38.1796872-31.5 25.667969-51.855469 61.019532-57.703125 99.960938h-39.609375c-2.601562 0-4.988281 1.441406-6.195312 3.746094-1.210938 2.304687-1.042969 5.089843.4375 7.230468zm37.234375-61.910156-31.472656 45.609374-31.472656-45.609374zm0 0" fill="url(#c)"/><path d="m184.9375 167.996094c-.363281 16.191406 5.691406 31.867187 16.84375 43.613281 6.839844 7.214844 10.765625 16.710937 11.019531 26.652344-3.675781.4375-6.375 3.660156-6.164062 7.351562.210937 3.695313 3.261719 6.585938 6.960937 6.601563h67.09375c3.863282.023437 7.019532-3.089844 7.042969-6.957032.027344-3.863281-3.085937-7.019531-6.953125-7.042968.160156-9.730469 3.992188-18.769532 11.324219-26.441406 10.886719-11.574219 16.96875-26.851563 17.015625-42.742188-.089844-34.027344-27.550782-61.644531-61.578125-61.929688-34.027344-.285156-61.945313 26.867188-62.609375 60.890626zm61.382812-47.171875c12.890626-.164063 25.308594 4.84375 34.480469 13.902343 9.171875 9.058594 14.328125 21.417969 14.320313 34.308594-.046875 12.320313-4.765625 24.160156-13.199219 33.136719-9.46875 9.636719-14.882813 22.535156-15.125 36.039063h-40.007813c-.277343-13.519532-5.582031-26.449219-14.878906-36.265626-8.609375-9.089843-13.273437-21.214843-12.976562-33.730468.402344-25.28125 22.113281-46.984375 47.386718-47.390625zm0 0" fill="url(#d)"/><path d="m226.644531 261.507812c-3.863281 0-7 3.132813-7 7 0 3.867188 3.136719 7 7 7h41c3.867188 0 7-3.132812 7-7 0-3.867187-3.132812-7-7-7zm0 0" fill="url(#e)"/><path d="m252.746094 87.269531v-22.832031c0-3.863281-3.132813-7-7-7-3.867188 0-7 3.136719-7 7v22.832031c0 3.867188 3.132812 7 7 7 3.867187 0 7-3.132812 7-7zm0 0" fill="url(#f)"/><path d="m306.699219 116.816406 16.769531-15.839844c2.8125-2.65625 2.9375-7.085937.28125-9.894531-2.652344-2.8125-7.082031-2.9375-9.894531-.285156l-16.773438 15.84375c-2.808593 2.652344-2.933593 7.085937-.28125 9.894531 2.65625 2.8125 7.085938 2.9375 9.898438.28125zm0 0" fill="url(#g)"/><path d="m180.613281 88.410156c-2.71875-2.71875-7.125-2.734375-9.863281-.035156-2.742188 2.699219-2.789062 7.105469-.105469 9.863281l16.074219 16.308594c1.75 1.800781 4.332031 2.527344 6.765625 1.898437 2.433594-.625 4.34375-2.507812 5.003906-4.933593.664063-2.421875-.023437-5.015625-1.800781-6.792969zm0 0" fill="url(#h)"/><path d="m258.847656 393.195312c-2.734375-2.734374-7.167968-2.734374-9.902344 0l-7.515624 7.511719-7.515626-7.511719c-2.734374-2.734374-7.164062-2.734374-9.898437 0-2.734375 2.730469-2.734375 7.164063 0 9.898438l7.515625 7.515625-7.515625 7.515625c-2.734375 2.734375-2.734375 7.167969 0 9.902344 2.734375 2.730468 7.164063 2.730468 9.898437 0l7.515626-7.515625 7.515624 7.515625c2.734376 2.730468 7.167969 2.730468 9.902344 0 2.730469-2.734375 2.730469-7.167969 0-9.902344l-7.519531-7.515625 7.519531-7.515625c2.730469-2.734375 2.730469-7.167969 0-9.898438zm0 0" fill="url(#i)"/><path d="m78.078125 393.078125-21.863281 20.027344-9.53125-10.335938c-2.621094-2.84375-7.050782-3.023437-9.890625-.402343-2.84375 2.621093-3.023438 7.050781-.402344 9.894531l14.265625 15.464843c2.613281 2.835938 7.027344 3.019532 9.871094.414063l27.007812-24.738281c2.851563-2.609375 3.046875-7.039063.433594-9.890625-2.609375-2.851563-7.039062-3.042969-9.890625-.433594zm0 0" fill="url(#j)"/><path d="m432.121094 348.582031c-29.609375.042969-55.078125 20.972657-60.851563 50.011719l-68.945312.25c-5.625-29.128906-31.089844-50.195312-60.757813-50.261719-29.664062-.0625-55.222656 20.886719-60.980468 49.992188h-57.570313c-6.347656-32.308594-36.8125-54.042969-69.425781-49.535157-32.617188 4.507813-56.042969 33.691407-53.386719 66.511719 2.652344 32.816407 30.460937 57.859375 63.378906 57.066407 32.914063-.789063 59.492188-27.136719 60.566407-60.042969h55.304687c1.050781 33.417969 28.410156 59.988281 61.847656 60.0625 33.4375.070312 60.910157-26.382813 62.101563-59.800781l66.742187-.238282c1.097657 33.976563 29.335938 60.738282 63.320313 60.003906 33.984375-.730468 61.046875-28.683593 60.679687-62.675781-.371093-33.988281-28.03125-61.347656-62.023437-61.34375zm-369.949219 110.054688c-26.523437 0-48.027344-21.503907-48.027344-48.027344s21.503907-48.027344 48.027344-48.027344 48.027344 21.503907 48.027344 48.027344c-.03125 26.511719-21.515625 47.996094-48.027344 48.027344zm179.261719 0c-26.527344 0-48.027344-21.503907-48.027344-48.027344s21.5-48.027344 48.027344-48.027344c26.523437 0 48.023437 21.503907 48.023437 48.027344-.03125 26.511719-21.515625 47.996094-48.023437 48.027344zm190.6875 0c-26.523438 0-48.027344-21.503907-48.027344-48.027344s21.503906-48.027344 48.027344-48.027344c26.523437 0 48.023437 21.503907 48.023437 48.027344-.027343 26.511719-21.511719 47.996094-48.023437 48.027344zm0 0" fill="url(#k)"/><path d="m448.027344 393.078125-21.863282 20.027344-9.53125-10.335938c-2.621093-2.84375-7.050781-3.023437-9.894531-.402343-2.839843 2.621093-3.019531 7.050781-.398437 9.894531l14.261718 15.464843c2.613282 2.835938 7.03125 3.019532 9.875.414063l27.007813-24.738281c2.851563-2.609375 3.042969-7.039063.433594-9.890625-2.613281-2.851563-7.039063-3.042969-9.890625-.433594zm0 0" fill="url(#l)"/></svg>