<svg height="480pt" viewBox="-56 0 480 480" width="480pt" xmlns="http://www.w3.org/2000/svg" xmlns:xlink="http://www.w3.org/1999/xlink"><linearGradient id="a"><stop offset="0" stop-color="#fff200"/><stop offset="1" stop-color="#cd118c"/></linearGradient><linearGradient id="b" gradientUnits="userSpaceOnUse" x1="-64.368" x2="431.632" xlink:href="#a" y1="437.88" y2="-10.12"/><linearGradient id="c" gradientUnits="userSpaceOnUse" x1="24.656" x2="520.656" xlink:href="#a" y1="536.44" y2="88.44"/><linearGradient id="d" gradientUnits="userSpaceOnUse" x1="-147.224" x2="348.776" xlink:href="#a" y1="346.144" y2="-101.856"/><linearGradient id="e" gradientUnits="userSpaceOnUse" x1="-84.52" x2="411.48" xlink:href="#a" y1="415.568" y2="-32.432"/><linearGradient id="f" gradientUnits="userSpaceOnUse" x1="-56.664" x2="439.336" xlink:href="#a" y1="446.408" y2="-1.592"/><linearGradient id="g" gradientUnits="userSpaceOnUse" x1="-66.36" x2="429.64" xlink:href="#a" y1="435.68" y2="-12.32"/><linearGradient id="h" gradientUnits="userSpaceOnUse" x1="-80.608" x2="415.392" xlink:href="#a" y1="419.904" y2="-28.096"/><linearGradient id="i" gradientUnits="userSpaceOnUse" x1="-60.712" x2="435.288" xlink:href="#a" y1="441.928" y2="-6.072"/><linearGradient id="j" gradientUnits="userSpaceOnUse" x1="-40.808" x2="455.192" xlink:href="#a" y1="463.96" y2="15.96"/><linearGradient id="k" gradientUnits="userSpaceOnUse" x1="-20.912" x2="475.088" xlink:href="#a" y1="485.984" y2="37.984"/><linearGradient id="l" gradientUnits="userSpaceOnUse" x1="-12.312" x2="483.688" xlink:href="#a" y1="495.512" y2="47.512"/><linearGradient id="m" gradientUnits="userSpaceOnUse" x1="7.584" x2="503.584" xlink:href="#a" y1="517.536" y2="69.536"/><linearGradient id="n" gradientUnits="userSpaceOnUse" x1="27.48" x2="523.48" xlink:href="#a" y1="539.568" y2="91.568"/><linearGradient id="o" gradientUnits="userSpaceOnUse" x1="47.376" x2="543.376" xlink:href="#a" y1="561.592" y2="113.592"/><path d="m336 60.6875-60.6875-60.6875h-275.3125v456h336zm-56-33.375 28.6875 28.6875h-28.6875zm-264 412.6875v-424h248v56h56v368zm0 0" fill="url(#b)"/><path d="m320 16v16h32v432h-328v16h344v-464zm0 0" fill="url(#c)"/><path d="m192 192v-160h-160v160zm-128-16v-8c.027344-22.082031 17.917969-39.972656 40-40h16c22.082031.027344 39.972656 17.917969 40 40v8zm32-72v-32c0-4.417969 3.582031-8 8-8h16c4.417969 0 8 3.582031 8 8v32c0 4.417969-3.582031 8-8 8h-16c-4.417969 0-8-3.582031-8-8zm80-56v120c-.035156-22.929688-14.03125-43.523438-35.335938-52 2.160157-3.632812 3.3125-7.773438 3.335938-12v-32c0-13.253906-10.746094-24-24-24zm-128 0h56c-13.253906 0-24 10.746094-24 24v32c.023438 4.226562 1.175781 8.367188 3.335938 12-21.304688 8.476562-35.300782 29.070312-35.335938 52zm0 0" fill="url(#d)"/><path d="m208 128h96v-40h-96zm16-24h64v8h-64zm0 0" fill="url(#e)"/><path d="m208 184h96v-40h-96zm16-24h64v8h-64zm0 0" fill="url(#f)"/><path d="m32 216h272v16h-272zm0 0" fill="url(#g)"/><path d="m32 256h120v16h-120zm0 0" fill="url(#h)"/><path d="m32 296h120v16h-120zm0 0" fill="url(#i)"/><path d="m32 336h120v16h-120zm0 0" fill="url(#j)"/><path d="m32 376h120v16h-120zm0 0" fill="url(#k)"/><path d="m184 256h120v16h-120zm0 0" fill="url(#l)"/><path d="m184 296h120v16h-120zm0 0" fill="url(#m)"/><path d="m184 336h120v16h-120zm0 0" fill="url(#n)"/><path d="m184 376h120v16h-120zm0 0" fill="url(#o)"/></svg>