<svg height="448pt" viewBox="-44 0 448 448.0434" width="448pt" xmlns="http://www.w3.org/2000/svg" xmlns:xlink="http://www.w3.org/1999/xlink"><linearGradient id="a"><stop offset="0" stop-color="#00efd1"/><stop offset="1" stop-color="#00acea"/></linearGradient><linearGradient id="b" gradientUnits="userSpaceOnUse" x1="158.652262" x2="158.652262" xlink:href="#a" y1="-13.265759" y2="463.791241"/><linearGradient id="c" gradientUnits="userSpaceOnUse" x1="140.775262" x2="140.775262" xlink:href="#a" y1="-13.265759" y2="463.791241"/><linearGradient id="d" gradientUnits="userSpaceOnUse" x1="126.428262" x2="126.428262" xlink:href="#a" y1="-13.265759" y2="463.791241"/><linearGradient id="e" gradientUnits="userSpaceOnUse" x1="134.309262" x2="134.309262" xlink:href="#a" y1="-13.265759" y2="463.791241"/><linearGradient id="f" gradientUnits="userSpaceOnUse" x1="326.277262" x2="326.277262" xlink:href="#a" y1="-13.265759" y2="463.791241"/><linearGradient id="g" gradientUnits="userSpaceOnUse" x1="304.118262" x2="304.118262" xlink:href="#a" y1="-13.265759" y2="463.791241"/><linearGradient id="h" gradientUnits="userSpaceOnUse" x1="198.030262" x2="198.030262" xlink:href="#a" y1="-13.265759" y2="463.791241"/><linearGradient id="i" gradientUnits="userSpaceOnUse" x1="199.875262" x2="199.875262" xlink:href="#a" y1="-13.265759" y2="463.791241"/><linearGradient id="j" gradientUnits="userSpaceOnUse" x1="203.565262" x2="203.565262" xlink:href="#a" y1="-13.265759" y2="463.791241"/><linearGradient id="k" gradientUnits="userSpaceOnUse" x1="139.619262" x2="139.619262" xlink:href="#a" y1="-13.265759" y2="463.791241"/><linearGradient id="l" gradientUnits="userSpaceOnUse" x1="205.605262" x2="205.605262" xlink:href="#a" y1="-13.265759" y2="463.791241"/><linearGradient id="m" gradientUnits="userSpaceOnUse" x1="239.856262" x2="239.856262" xlink:href="#a" y1="-13.265759" y2="463.791241"/><linearGradient id="n" gradientUnits="userSpaceOnUse" x1="300.107262" x2="300.107262" xlink:href="#a" y1="-13.265759" y2="463.791241"/><path d="m59.460938 102.800781c34.289062-58.40625 76.292968-86.800781 128.421874-86.800781 17.726563 0 28.828126 8.464844 44.191407 20.183594 16.921875 12.898437 37.984375 28.964844 75.308593 38.097656 2.789063.71875 5.75-.117188 7.75-2.191406 2-2.074219 2.730469-5.0625 1.914063-7.824219-.816406-2.765625-3.058594-4.875-5.863281-5.523437-34.082032-8.339844-52.847656-22.652344-69.410156-35.28125-16.507813-12.585938-30.761719-23.45703175-53.898438-23.45703175-29.472656-.19921825-58.257812 8.89453175-82.265625 25.98828175-22.199219 15.644531-42.371094 38.757812-59.953125 68.710937-10.519531 17.792969-24.902344 32.996094-42.082031 44.488281-3.6718752 2.457032-4.660157 7.429688-2.199219 11.101563 2.457031 3.671875 7.425781 4.65625 11.097656 2.199219 19.1875-12.835938 35.246094-29.816407 46.988282-49.691407zm0 0" fill="url(#b)"/><path d="m225.339844 192.957031c1.902344-11.464843-.871094-23.214843-7.699219-32.617187l-.03125-.042969c-14.113281-19.410156-41.21875-23.851563-60.789063-9.960937l-97.835937 69.800781c-3.597656 2.566406-4.433594 7.5625-1.867187 11.15625 2.566406 3.597656 7.5625 4.433593 11.160156 1.867187l97.839844-69.800781c12.390624-8.792969 29.550781-5.996094 38.503906 6.285156.011718.011719.019531.027344.03125.039063 4.320312 5.972656 6.082031 13.421875 4.894531 20.695312-1.1875 7.277344-5.222656 13.777344-11.21875 18.066406l-.132813.101563-117.878906 88.042969c-3.539062 2.644531-4.265625 7.65625-1.621094 11.195312 2.644532 3.539063 7.65625 4.265625 11.195313 1.625l117.820313-88c9.445312-6.746094 15.792968-16.996094 17.628906-28.453125zm0 0" fill="url(#c)"/><path d="m191.917969 178.332031c-2.578125-3.589843-7.578125-4.410156-11.164063-1.832031l-117.980468 84.769531c-2.34375 1.660157-3.621094 4.449219-3.34375 7.304688.277343 2.859375 2.066406 5.351562 4.6875 6.527343 2.621093 1.175782 5.671874.855469 7.992187-.835937l117.984375-84.769531c3.585938-2.582032 4.402344-7.578125 1.824219-11.164063zm0 0" fill="url(#d)"/><path d="m172.601562 59.601562c6.5625-.070312 13.109376.597657 19.519532 1.996094 2.78125.699219 5.726562-.140625 7.71875-2.207031 1.992187-2.066406 2.722656-5.042969 1.917968-7.796875-.808593-2.753906-3.027343-4.867188-5.816406-5.535156-1.710937-.417969-42.148437-10.050782-64.15625 11.953125l-65.199218 65.203125 11.3125 11.308594 65.199218-65.199219c7.863282-7.855469 20.382813-9.625 29.503906-9.722657zm0 0" fill="url(#e)"/><path d="m353.355469 285.742188c-39.507813-3.121094-45.355469-47.085938-45.585938-48.953126-.566406-4.347656-4.523437-7.425781-8.875-6.910156-4.351562.519532-7.476562 4.441406-7.011719 8.796875 1.542969 10.332031 4.875 20.3125 9.839844 29.5 11.015625 20.195313 28.433594 31.785157 50.375 33.515625.214844.019532.425782.027344.636719.027344 4.300781 0 7.828125-3.394531 7.996094-7.691406.167969-4.292969-3.089844-7.953125-7.375-8.285156zm0 0" fill="url(#f)"/><path d="m345.050781 329.070312c-31.007812-8.71875-52.433593-25.253906-63.695312-49.144531-5.378907-11.289062-8.109375-23.660156-7.980469-36.167969.011719-.398437.007812-.648437.003906-.730468-.054687-4.417969-3.679687-7.957032-8.101562-7.902344-4.417969.054688-7.953125 3.683594-7.898438 8.101562-.179687 15.039063 3.066406 29.925782 9.5 43.523438 9.160156 19.4375 29.398438 45.230469 73.835938 57.726562 4.222656 1.109376 8.554687-1.367187 9.734375-5.570312 1.183593-4.203125-1.222657-8.574219-5.402344-9.828125zm0 0" fill="url(#g)"/><path d="m299.09375 373.429688-84.4375-63.34375c-13.640625-10.441407-32.511719-10.71875-46.449219-.679688l-71.140625 51.648438c-2.335937 1.667968-3.597656 4.464843-3.308594 7.324218.292969 2.855469 2.09375 5.339844 4.722657 6.5 2.625 1.164063 5.675781.828125 7.988281-.878906l71.136719-51.648438c8.195312-5.898437 19.289062-5.726562 27.296875.425782.035156.023437.066406.050781.101562.074218l84.484375 63.378907c3.535157 2.648437 8.550781 1.933593 11.199219-1.601563 2.652344-3.535156 1.933594-8.546875-1.597656-11.199218zm0 0" fill="url(#h)"/><path d="m278.058594 404.902344-61.25-47.441406c-13.640625-10.484376-32.542969-10.777344-46.5-.722657l-48.417969 35.152344c-2.339844 1.667969-3.601563 4.464844-3.308594 7.324219.292969 2.855468 2.09375 5.339844 4.722657 6.5 2.625 1.164062 5.675781.828125 7.984374-.878906l48.417969-35.152344c8.195313-5.898438 19.292969-5.726563 27.300781.425781l61.25 47.445313c3.496094 2.703124 8.519532 2.066406 11.226563-1.425782 2.707031-3.492187 2.066406-8.519531-1.425781-11.226562zm0 0" fill="url(#i)"/><path d="m256.960938 433.613281-32.195313-23.832031c-13.640625-10.425781-32.5-10.695312-46.429687-.664062l-28.101563 20.398437c-3.535156 2.609375-4.304687 7.582031-1.722656 11.140625 2.582031 3.554688 7.546875 4.363281 11.125 1.808594l28.097656-20.402344c8.195313-5.898438 19.292969-5.726562 27.300781.425781.046875.035157.09375.070313.140625.105469l32.257813 23.878906c3.554687 2.628906 8.5625 1.882813 11.191406-1.667968 2.628906-3.550782 1.882812-8.5625-1.667969-11.191407zm0 0" fill="url(#j)"/><path d="m104.054688 332.949219 124.671874-90.488281c30.382813-21.738282 39.285157-62.996094 20.578126-95.332032l-.050782-.089844c-10.261718-17.675781-27.5-30.203124-47.480468-34.503906-19.980469-4.300781-40.847657.027344-57.472657 11.917969l-120.84375 88.289063c-3.570312 2.605468-4.347656 7.609374-1.742187 11.175781 2.605468 3.570312 7.613281 4.347656 11.179687 1.742187l120.773438-88.238281c12.945312-9.234375 29.183593-12.59375 44.730469-9.25 15.546874 3.34375 28.96875 13.078125 36.976562 26.820313l.042969.082031c14.75 25.210937 7.785156 57.515625-16.042969 74.40625l-124.722656 90.519531c-3.574219 2.597656-4.371094 7.601562-1.773438 11.175781 2.59375 3.574219 7.597656 4.371094 11.175782 1.773438zm0 0" fill="url(#k)"/><path d="m268.152344 225.339844c3.921875 2.035156 8.75.503906 10.785156-3.417969 16.085938-31.011719 16.742188-64.191406 1.792969-91.027344-12.113281-21.757812-33.460938-37.234375-60.105469-43.582031-30.835938-7.347656-66.117188-1.761719-96.800781 15.324219-2.515625 1.378906-4.097657 4.003906-4.148438 6.871093-.050781 2.871094 1.441407 5.546876 3.90625 7.015626 2.464844 1.46875 5.53125 1.503906 8.027344.089843 27.226563-15.160156 58.316406-20.167969 85.300781-13.738281 22.226563 5.296875 39.929688 18.011719 49.835938 35.800781 12.285156 22.0625 11.550781 49.71875-2.019532 75.878907-2.035156 3.921874-.5 8.753906 3.425782 10.785156zm0 0" fill="url(#l)"/><path d="m225.589844 262.867188c-3.789063 2.273437-5.015625 7.1875-2.742188 10.976562l20.300782 33.828125c2.273437 3.789063 7.1875 5.019531 10.976562 2.746094 3.789062-2.273438 5.015625-7.1875 2.742188-10.976563l-20.300782-33.832031c-2.273437-3.789063-7.1875-5.015625-10.976562-2.742187zm0 0" fill="url(#m)"/><path d="m316.121094 217.765625c2.042968.574219 4.230468.3125 6.082031-.726563 1.851563-1.039062 3.210937-2.773437 3.78125-4.816406 12.554687-44.789062-.15625-78.242187-13.03125-98.421875-13.914063-21.796875-30.800781-32.988281-31.507813-33.453125-3.695312-2.417968-8.652343-1.378906-11.070312 2.316406-2.417969 3.699219-1.382812 8.65625 2.316406 11.074219.144532.101563 14.691406 9.734375 26.773438 28.671875 16.171875 25.34375 19.910156 54.113282 11.113281 85.492188-1.191406 4.253906 1.289063 8.671875 5.542969 9.863281zm0 0" fill="url(#n)"/></svg>