<svg height="472pt" viewBox="0 -10 472 472" width="472pt" xmlns="http://www.w3.org/2000/svg" xmlns:xlink="http://www.w3.org/1999/xlink"><linearGradient id="a"><stop offset="0" stop-color="#00efd1"/><stop offset="1" stop-color="#00acea"/></linearGradient><linearGradient id="b" gradientUnits="userSpaceOnUse" x1="241" x2="241" xlink:href="#a" y1="-12.233" y2="464.853"/><linearGradient id="c" gradientUnits="userSpaceOnUse" x1="232.216" x2="232.216" xlink:href="#a" y1="-12.233" y2="464.853"/><linearGradient id="d" gradientUnits="userSpaceOnUse" x1="268.539" x2="268.539" xlink:href="#a" y1="-12.233" y2="464.853"/><linearGradient id="e" gradientUnits="userSpaceOnUse" x1="236" x2="236" xlink:href="#a" y1="-12.233" y2="464.853"/><linearGradient id="f" gradientUnits="userSpaceOnUse" x1="403.91" x2="403.91" xlink:href="#a" y1="-12.233" y2="464.853"/><linearGradient id="g" gradientUnits="userSpaceOnUse" x1="404" x2="404" xlink:href="#a" y1="-12.233" y2="464.853"/><linearGradient id="h" gradientUnits="userSpaceOnUse" x1="68.09" x2="68.09" xlink:href="#a" y1="-12.233" y2="464.853"/><linearGradient id="i" gradientUnits="userSpaceOnUse" x1="68" x2="68" xlink:href="#a" y1="-12.233" y2="464.853"/><linearGradient id="j" gradientUnits="userSpaceOnUse" x1="320" x2="320" xlink:href="#a" y1="-12.233" y2="464.853"/><linearGradient id="k" gradientUnits="userSpaceOnUse" x1="152" x2="152" xlink:href="#a" y1="-12.233" y2="464.853"/><path d="m112.648438 221h12.265624l1.738282 25.457031c.308594 2.871094 2.105468 5.363281 4.730468 6.566407 2.621094 1.207031 5.683594.941406 8.0625-.691407l41.816407-31.332031h40.753906c11.667969 0 20.984375-10.164062 20.984375-22.179688v-33.820312h24.121094l54.738281 51.992188c2.277344 2.1875 5.632813 2.824218 8.550781 1.625 2.921875-1.195313 4.863282-4.003907 4.949219-7.160157l1.585937-46.457031h19.242188c18.925781 0 34.8125-15.878906 34.8125-35.5v-94.160156c0-19.625-15.886719-35.339844-34.8125-35.339844h-172.007812c-18.925782 0-34.179688 15.714844-34.179688 35.339844v77.660156h-37.351562c-11.925782.089844-21.570313 9.742188-21.648438 21.667969v64.152343c0 12.015626 9.980469 22.179688 21.648438 22.179688zm53.351562-185.660156c0-10.800782 8.074219-19.339844 18.179688-19.339844h172.007812c10.105469 0 18.8125 8.539062 18.8125 19.339844v94.160156c0 10.800781-8.707031 19.5-18.8125 19.5h-26.976562c-4.320313.015625-7.855469 3.449219-8 7.769531l-1.238282 36.402344-44.15625-41.941406c-1.480468-1.417969-3.453125-2.21875-5.507812-2.230469h-86.128906c-10.101563 0-18.179688-8.699219-18.179688-19.5zm-59 99.328125c.070312-3.09375 2.554688-5.589844 5.648438-5.667969h37.351562v.5c0 19.625 15.253906 35.5 34.179688 35.5h42.820312v33.820312c0 3.199219-2.136719 6.179688-4.984375 6.179688h-43.429687c-1.71875-.070312-3.410157.429688-4.816407 1.417969l-32.152343 24.125-1.242188-18.226563c-.296875-4.171875-3.800781-7.382812-7.980469-7.316406h-19.746093c-2.84375 0-5.648438-2.984375-5.648438-6.179688zm0 0" fill="url(#b)"/><path d="m192.730469 69h78.96875c4.417969 0 8-3.582031 8-8s-3.582031-8-8-8h-78.96875c-4.417969 0-8 3.582031-8 8s3.582031 8 8 8zm0 0" fill="url(#c)"/><path d="m192.730469 111h151.613281c4.417969 0 8-3.582031 8-8s-3.582031-8-8-8h-151.613281c-4.417969 0-8 3.582031-8 8s3.582031 8 8 8zm0 0" fill="url(#d)"/><path d="m193.179688 324.535156c0 22.898438 19.210937 41.53125 42.820312 41.53125s42.820312-18.632812 42.820312-41.53125c0-22.898437-19.210937-41.53125-42.820312-41.53125s-42.820312 18.632813-42.820312 41.53125zm69.640624 0c0 14.078125-12.03125 25.53125-26.820312 25.53125s-26.820312-11.453125-26.820312-25.53125 12.03125-25.53125 26.820312-25.53125 26.820312 11.453125 26.820312 25.53125zm0 0" fill="url(#e)"/><path d="m236 368.132812c-37.546875 0-68 29.546876-68 65.859376v10.257812c-.011719 2.085938.824219 4.089844 2.316406 5.546875 1.488282 1.460937 3.507813 2.257813 5.59375 2.203125h120.179688c2.085937.054688 4.105468-.742188 5.59375-2.203125 1.492187-1.457031 2.328125-3.460937 2.316406-5.546875v-10.257812c0-36.3125-30.453125-65.859376-68-65.859376zm52 67.867188h-104v-2.007812c0-27.492188 23.277344-49.859376 52-49.859376s52 22.367188 52 49.859376zm0 0" fill="url(#e)"/><path d="m361.089844 324.535156c0 22.898438 19.210937 41.53125 42.820312 41.53125s42.820313-18.632812 42.820313-41.53125c0-22.898437-19.210938-41.53125-42.820313-41.53125s-42.820312 18.632813-42.820312 41.53125zm42.820312-25.53125c14.789063 0 26.820313 11.453125 26.820313 25.53125s-12.03125 25.53125-26.820313 25.53125c-14.789062 0-26.820312-11.453125-26.820312-25.53125s12.03125-25.53125 26.820312-25.53125zm0 0" fill="url(#f)"/><path d="m404 368.132812c-37.542969 0-68 29.546876-68 65.859376v10.257812c-.03125 2.078125.785156 4.078125 2.261719 5.539062 1.476562 1.460938 3.484375 2.261719 5.558593 2.210938h120.179688c2.09375.054688 4.125-.734375 5.628906-2.191406 1.507813-1.460938 2.359375-3.460938 2.371094-5.558594v-10.257812c0-36.3125-30.457031-65.859376-68-65.859376zm52 67.867188h-104v-2.007812c0-27.492188 23.277344-49.859376 52-49.859376s52 22.367188 52 49.859376zm0 0" fill="url(#g)"/><path d="m68.089844 366.066406c23.609375 0 42.820312-18.632812 42.820312-41.53125 0-22.898437-19.210937-41.53125-42.820312-41.53125s-42.820313 18.632813-42.820313 41.53125c0 22.898438 19.210938 41.53125 42.820313 41.53125zm0-67.0625c14.789062 0 26.820312 11.453125 26.820312 25.53125s-12.03125 25.53125-26.820312 25.53125c-14.789063 0-26.820313-11.453125-26.820313-25.53125s12.03125-25.53125 26.820313-25.53125zm0 0" fill="url(#h)"/><path d="m68 368.132812c-37.542969 0-68 29.546876-68 65.859376v10.257812c.0117188 2.097656.863281 4.097656 2.371094 5.558594 1.503906 1.457031 3.535156 2.246094 5.628906 2.191406h120.179688c2.074218.050781 4.082031-.75 5.558593-2.210938 1.476563-1.460937 2.292969-3.460937 2.261719-5.539062v-10.257812c0-36.3125-30.457031-65.859376-68-65.859376zm52 67.867188h-104v-2.007812c0-27.492188 23.277344-49.859376 52-49.859376s52 22.367188 52 49.859376zm0 0" fill="url(#i)"/><path d="m362.820312 304.535156c0-22.898437-19.210937-41.53125-42.820312-41.53125s-42.820312 18.632813-42.820312 41.53125c0 22.898438 19.210937 41.53125 42.820312 41.53125s42.820312-18.632812 42.820312-41.53125zm-42.820312 25.53125c-14.789062 0-26.820312-11.453125-26.820312-25.53125s12.03125-25.53125 26.820312-25.53125 26.820312 11.453125 26.820312 25.53125-12.03125 25.53125-26.820312 25.53125zm0 0" fill="url(#j)"/><path d="m194.820312 304.535156c0-22.898437-19.210937-41.53125-42.820312-41.53125s-42.820312 18.632813-42.820312 41.53125c0 22.898438 19.210937 41.53125 42.820312 41.53125s42.820312-18.632812 42.820312-41.53125zm-42.820312 25.53125c-14.789062 0-26.820312-11.453125-26.820312-25.53125s12.03125-25.53125 26.820312-25.53125 26.820312 11.453125 26.820312 25.53125-12.03125 25.53125-26.820312 25.53125zm0 0" fill="url(#k)"/></svg>