<?xml version="1.0" encoding="iso-8859-1"?>
<!-- Generator: Adobe Illustrator 19.0.0, SVG Export Plug-In . SVG Version: 6.00 Build 0)  -->
<svg version="1.1" id="Layer_1" xmlns="http://www.w3.org/2000/svg" xmlns:xlink="http://www.w3.org/1999/xlink" x="0px" y="0px"
	 viewBox="0 0 512 512" style="enable-background:new 0 0 512 512;" xml:space="preserve">
<g>
	<g>
		<g>
			<path d="M416,234.667h42.667c5.888,0,10.667-4.779,10.667-10.667s-4.779-10.667-10.667-10.667H416
				c-5.888,0-10.667,4.779-10.667,10.667S410.112,234.667,416,234.667z"/>
			<path d="M458.667,341.333h-85.333c-5.888,0-10.667,4.779-10.667,10.667c0,5.888,4.779,10.667,10.667,10.667h85.333
				c5.888,0,10.667-4.779,10.667-10.667C469.333,346.112,464.555,341.333,458.667,341.333z"/>
			<path d="M309.333,234.667h64c5.888,0,10.667-4.779,10.667-10.667s-4.779-10.667-10.667-10.667h-64
				c-5.888,0-10.667,4.779-10.667,10.667S303.445,234.667,309.333,234.667z"/>
			<path d="M53.333,405.333l213.333-0.064c5.888,0,10.667-4.779,10.667-10.667c0-26.752-18.112-49.941-44.053-56.427l-32.021-8
				l-1.344-5.355c8.32-9.173,14.208-20.864,16.661-33.024c5.675-2.923,9.813-8.533,10.667-15.253l2.325-18.56
				c0.704-5.611-1.045-11.285-4.757-15.552c-1.152-1.323-2.475-2.475-3.904-3.435l0.555-11.307l1.963-1.963
				c5.504-5.845,12.949-18.325,1.152-36.331c-5.589-8.533-17.109-18.731-40.171-18.731c-6.784,0-22.123,0-37.035,9.323
				c-43.904,1.557-49.067,25.216-49.067,43.072c0,3.52,0.64,10.112,1.237,15.616c-1.579,1.003-3.029,2.219-4.288,3.648
				c-3.776,4.288-5.547,9.984-4.843,15.68l2.325,18.56c0.875,6.955,5.291,12.715,11.797,15.552
				c2.432,11.627,7.979,22.891,15.765,31.829l-1.557,6.272l-32.021,8c-25.941,6.485-44.053,29.696-44.053,56.448
				c0,2.837,1.109,5.568,3.115,7.552C47.787,404.203,50.496,405.333,53.333,405.333z M91.861,358.891l38.229-9.557
				c3.819-0.939,6.827-3.925,7.765-7.744l4.544-18.197c0.96-3.755-0.235-7.723-3.051-10.368c-8.299-7.787-13.803-19.2-14.699-30.528
				c-0.448-5.547-5.184-8.597-10.752-8.597l-2.731-16.981c3.072,0,5.973-1.301,8-3.605c2.027-2.283,2.965-5.333,2.581-8.384
				c-0.811-6.443-2.112-18.091-2.112-21.845c0-11.051,0-21.483,31.168-21.803c2.176-0.021,4.331-0.704,6.101-1.984
				c10.176-7.275,21.845-7.275,27.456-7.275c16.384,0,20.864,6.848,22.336,9.088c4.352,6.635,2.56,8.512,1.387,9.792l-4.651,4.629
				c-1.877,1.877-2.987,4.395-3.115,7.04l-1.131,23.211c-0.128,2.901,0.235,4.928,2.219,7.04c2.005,2.112,4.075,2.539,6.976,2.56
				l-1.387,17.344c-5.568,0-10.197,4.267-10.645,9.813c-0.896,11.499-6.805,23.424-15.381,31.104
				c-2.944,2.645-4.181,6.699-3.221,10.539l4.373,17.429c0.96,3.797,3.947,6.805,7.765,7.744l38.229,9.557
				c12.843,3.221,22.656,12.907,26.325,25.088l-188.885-0.021C69.248,371.819,79.061,362.133,91.861,358.891z"/>
			<path d="M309.333,298.667h149.333c5.888,0,10.667-4.779,10.667-10.667s-4.779-10.667-10.667-10.667H309.333
				c-5.888,0-10.667,4.779-10.667,10.667S303.445,298.667,309.333,298.667z"/>
			<path d="M458.667,64H53.333C23.936,64,0,87.936,0,117.333v277.333C0,424.064,23.936,448,53.333,448h405.333
				C488.064,448,512,424.064,512,394.667V117.333C512,87.936,488.064,64,458.667,64z M490.667,394.667c0,17.643-14.357,32-32,32
				H53.333c-17.643,0-32-14.357-32-32V149.333h469.333V394.667z M490.667,128H21.333v-10.667c0-17.643,14.357-32,32-32h405.333
				c17.643,0,32,14.357,32,32V128z"/>
			<path d="M309.333,362.667h21.333c5.888,0,10.667-4.779,10.667-10.667c0-5.888-4.779-10.667-10.667-10.667h-21.333
				c-5.888,0-10.667,4.779-10.667,10.667C298.667,357.888,303.445,362.667,309.333,362.667z"/>
		</g>
	</g>
</g>
<g>
</g>
<g>
</g>
<g>
</g>
<g>
</g>
<g>
</g>
<g>
</g>
<g>
</g>
<g>
</g>
<g>
</g>
<g>
</g>
<g>
</g>
<g>
</g>
<g>
</g>
<g>
</g>
<g>
</g>
</svg>
