<svg height="466pt" viewBox="-36 0 466 466.60013" width="466pt" xmlns="http://www.w3.org/2000/svg" xmlns:xlink="http://www.w3.org/1999/xlink"><linearGradient id="a"><stop offset="0" stop-color="#00efd1"/><stop offset="1" stop-color="#00acea"/></linearGradient><linearGradient id="b" gradientTransform="matrix(1 0 0 -1 -58.599801 491.3)" gradientUnits="userSpaceOnUse" x1="255.95" x2="255.95" xlink:href="#a" y1="494.856" y2="4.72"/><linearGradient id="c" gradientTransform="matrix(1 0 0 -1 -58.599801 491.3)" gradientUnits="userSpaceOnUse" x1="255.8" x2="255.8" xlink:href="#a" y1="494.856" y2="4.72"/><path d="m326.199219 310.898438h-21c-27.5 0-52.300781 16.800781-63.199219 41.703124-10.433594-6.109374-22.308594-9.320312-34.398438-9.300781h-21c-12.011718.007813-23.808593 3.179688-34.203124 9.199219-10.832032-25.136719-35.527344-41.46875-62.898438-41.601562h-21c-37.644531.046874-68.152344 30.554687-68.199219 68.203124v48.097657c-.011719 1.859375.722657 3.648437 2.035157 4.964843 1.316406 1.3125 3.105468 2.046876 4.964843 2.035157h111.097657v25.402343c-.011719 1.859376.722656 3.644532 2.039062 4.960938s3.101562 2.050781 4.960938 2.039062h143.402343c1.859375.011719 3.648438-.722656 4.960938-2.039062 1.316406-1.316406 2.050781-3.101562 2.039062-4.960938v-25.402343h111.597657c1.863281.011719 3.648437-.722657 4.964843-2.035157 1.316407-1.316406 2.046875-3.105468 2.035157-4.964843v-48.097657c-.042969-37.648437-30.550782-68.15625-68.199219-68.203124zm-311.800781 109.300781v-41.097657c.027343-29.925781 24.277343-54.179687 54.203124-54.203124h21c22.941407.121093 43.378907 14.53125 51.199219 36.101562-14.203125 12.910156-22.296875 31.207031-22.300781 50.398438v8.703124h-104.101562zm247.5 32.300781h-129.398438v-41.101562c.023438-29.921876 24.277344-54.175782 54.199219-54.199219h21c29.925781.023437 54.175781 24.277343 54.199219 54.199219zm118.5-32.300781h-104.5v-8.699219c-.011719-19.140625-8.066407-37.394531-22.199219-50.300781 7.929687-21.632813 28.460937-36.0625 51.5-36.199219h21c29.925781.023438 54.175781 24.277344 54.199219 54.199219zm0 0" fill="url(#b)"/><path d="m30.601562 251.398438c-.035156 24.792968 18.65625 45.605468 43.304688 48.230468 24.652344 2.625 47.308594-13.785156 52.492188-38.027344 6.378906 11.402344 14.171874 21.953126 23.203124 31.398438 4.605469 22.472656 24.316407 38.65625 47.253907 38.800781 22.941406.144531 42.851562-15.789062 47.746093-38.199219 9.066407-9.425781 16.925782-19.9375 23.398438-31.300781 5.136719 21.988281 24.71875 37.554688 47.300781 37.597657 19.667969 0 37.386719-11.878907 44.859375-30.074219 7.476563-18.191407 3.226563-39.09375-10.761718-52.925781 6.425781-17.691407 9.707031-36.375 9.703124-55.199219 0-89.097657-72.5-161.699219-161.703124-161.699219-89.199219 0-161.699219 72.601562-161.699219 161.699219-.039063 18.722656 3.210937 37.304687 9.601562 54.902343-9.4375 9.113282-14.746093 21.679688-14.699219 34.796876zm48.5 34.5c-19.054687 0-34.5-15.445313-34.5-34.5 0-19.050782 15.445313-34.5 34.5-34.5 19.050782 0 34.5 15.449218 34.5 34.5-.300781 19.300781-15.5 34.5-34.5 34.5zm-29.203124-131.199219c1.464843-31.5 13.039062-61.691407 33-86.097657 9.050781 9.046876 19.15625 16.972657 30.101562 23.597657-6.628906 20.195312-10.265625 41.253906-10.800781 62.5zm75.601562-55.699219c20.257812 9.921875 42.363281 15.507812 64.898438 16.398438v39.300781h-74.097657c.4375-18.90625 3.535157-37.65625 9.199219-55.699219zm186-30.800781c20.160156 24.515625 31.839844 54.894531 33.300781 86.601562h-52.300781c-.46875-21.394531-4.144531-42.597656-10.898438-62.902343 10.878907-6.671876 20.917969-14.628907 29.898438-23.699219zm-114.101562 153.601562c19.605468-.066406 39.023437 3.808594 57.101562 11.398438 3.398438 1.402343 6.699219 3 9.898438 4.601562-5.070313 12.363281-11.761719 24-19.898438 34.597657-5.03125-21.964844-24.515625-37.578126-47.050781-37.699219-22.535157-.117188-42.1875 15.289062-47.449219 37.199219-8.003906-10.527344-14.589844-22.058594-19.601562-34.296876 3.203124-1.601562 6.601562-3.203124 9.902343-4.5 18.101563-7.5 37.507813-11.34375 57.097657-11.300781zm71.800781 2.800781c-3.097657-1.5-6.199219-3-9.398438-4.300781-17.613281-7.394531-36.414062-11.558593-55.5-12.300781v-39.300781h74.097657c-.347657 18.980469-3.445313 37.808593-9.199219 55.902343zm9.300781-69.902343h-74.101562v-39.300781c22.535156-.945313 44.617187-6.636719 64.800781-16.699219 5.699219 18.140625 8.828125 36.992187 9.300781 56zm-74.101562-53.300781v-84.898438c26.800781 14.699219 47.402343 38.699219 60 69-18.648438 9.488281-39.097657 14.90625-60 15.898438zm-14 0c-20.910157-.957032-41.386719-6.308594-60.097657-15.699219 12.597657-30.300781 33.199219-54.398438 60.097657-69.199219zm0 67.300781v39.300781c-19.070313.777344-37.859376 4.90625-55.5 12.199219-3.199219 1.300781-6.296876 2.699219-9.398438 4.300781-2.617188-8.144531-4.65625-16.464844-6.101562-24.898438-1.796876-10.175781-2.832032-20.472656-3.097657-30.800781h74.097657zm6.800781 149.101562c-19.054688 0-34.5-15.445312-34.5-34.5 0-19.054687 15.445312-34.5 34.5-34.5 19.054687 0 34.5 15.445313 34.5 34.5-.035157 19.039063-15.460938 34.460938-34.5 34.5zm152.601562-66.402343c.101563 9.183593-3.503906 18.015624-9.996093 24.507812-6.492188 6.492188-15.324219 10.09375-24.503907 9.992188-19.054687 0-34.5-15.445313-34.5-34.5 0-19.050782 15.445313-34.5 34.5-34.5 19.054688 0 34.5 15.449218 34.5 34.5zm-34.601562-48.597657c-10.03125-.011719-19.816407 3.097657-28 8.898438 3.171875-14.15625 4.949219-28.59375 5.300781-43.097657h52.300781c-.621093 13.46875-3.074219 26.792969-7.300781 39.597657-6.894531-3.550781-14.542969-5.402344-22.300781-5.398438zm-13.097657-145c-7.660156 7.875-16.21875 14.824219-25.5 20.699219-10.402343-24.300781-25.601562-44.800781-44.800781-60.398438 26.671875 6.425782 51.023438 20.175782 70.300781 39.699219zm-139.101562-39.699219c-19.300781 15.597657-34.5 36.296876-44.898438 60.699219-9.355468-5.902343-18.011718-12.847656-25.800781-20.699219 19.378907-19.664062 43.867188-33.519531 70.699219-40zm-113.101562 150.597657h52.300781c.265625 11.171875 1.402343 22.304687 3.402343 33.300781.597657 3.398438 1.296876 6.800781 2.097657 10.199219-14.726563-10.757813-34.261719-12.304688-50.5-4-4.222657-12.769531-6.679688-26.0625-7.300781-39.5zm0 0" fill="url(#c)"/></svg>