<svg height="480pt" viewBox="0 0 480 480.15681" width="480pt" xmlns="http://www.w3.org/2000/svg" xmlns:xlink="http://www.w3.org/1999/xlink"><linearGradient id="a"><stop offset="0" stop-color="#fff200"/><stop offset="1" stop-color="#cd118c"/></linearGradient><linearGradient id="b" gradientUnits="userSpaceOnUse" x1="54.918405" x2="494.918405" xlink:href="#a" y1="560.733817" y2="8.733817"/><linearGradient id="c" gradientUnits="userSpaceOnUse" x1="179.910405" x2="619.910405" xlink:href="#a" y1="660.357817" y2="108.357817"/><linearGradient id="d" gradientUnits="userSpaceOnUse" x1="-7.969595" x2="432.030405" xlink:href="#a" y1="510.605817" y2="-41.394183"/><path d="m408.078125 320.558594v-24.410156c0-4.417969-3.582031-8-8-8h-104v-16c0-4.417969-3.582031-8-8-8v-34.167969c52.082031-22.730469 81.078125-78.871094 69.46875-134.496094-11.609375-55.628906-60.644531-95.484375-117.46875-95.484375s-105.859375 39.855469-117.46875 95.484375c-11.609375 55.625 17.386719 111.765625 69.46875 134.496094v34.167969c-4.417969 0-8 3.582031-8 8v16h-104c-4.417969 0-8 3.582031-8 8v24.410156c-42.414063 4.261718-74.035156 41.03125-71.898437 83.601562 2.132812 42.574219 37.273437 75.996094 79.898437 75.996094s77.765625-33.421875 79.898437-75.996094c2.136719-42.570312-29.484374-79.339844-71.898437-83.601562v-16.410156h96v16c.027344 22.082031 17.917969 39.976562 40 40h32c22.082031-.023438 39.972656-17.917969 40-40v-16h96v16.410156c-42.414063 4.261718-74.035156 41.03125-71.898437 83.601562 2.132812 42.574219 37.273437 75.996094 79.898437 75.996094s77.765625-33.421875 79.898437-75.996094c2.136719-42.570312-29.484374-79.339844-71.898437-83.601562zm-264 79.589844c0 35.347656-28.652344 64-64 64s-64-28.652344-64-64c0-35.34375 28.652344-64 64-64 35.328125.042968 63.960937 28.671874 64 64zm80-262.398438 16-37.320312 16 37.320312v85.023438c-10.605469 1.617187-21.394531 1.617187-32 0zm-88-17.601562c-.023437-52.566407 39.179687-96.886719 91.355469-103.277344 52.179687-6.390625 100.921875 27.160156 113.582031 78.179687 12.664063 51.019531-14.738281 103.464844-63.847656 122.210938-1.707031.664062-3.394531 1.207031-5.089844 1.769531v-81.753906l9.503906-33.296875 15.144531 35.320312c1.261719 2.941407 4.152344 4.847657 7.351563 4.847657 1.085937.007812 2.15625-.214844 3.152344-.648438 4.058593-1.738281 5.941406-6.441406 4.199219-10.503906l-24-56c-1.332032-3.113282-4.480469-5.046875-7.863282-4.832032-3.378906.214844-6.257812 2.535157-7.183594 5.792969l-9.808593 34.402344-15.144531-35.320313c-1.261719-2.941406-4.152344-4.847656-7.351563-4.847656s-6.089844 1.90625-7.351563 4.847656l-15.144531 35.320313-9.808593-34.363281c-.929688-3.261719-3.8125-5.582032-7.199219-5.789063-3.375-.25-6.535157 1.679688-7.855469 4.796875l-24 56c-1.667969 4.046875.222656 8.679688 4.246094 10.402344 4.019531 1.722656 8.675781-.101562 10.457031-4.097656l15.144531-35.320313 9.511719 33.289063v81.753906c-1.710937-.570312-3.414063-1.113281-5.144531-1.785156-40.148438-15.515625-66.683594-54.054688-66.855469-97.097656zm72 115.609374c2.113281.601563 4.222656 1.199219 6.304687 1.648438 16.933594 3.65625 34.457032 3.65625 51.390626 0 2.082031-.449219 4.191406-1.046875 6.304687-1.648438v28.390626h-64zm48 108.390626h-32c-10.132813-.039063-19.148437-6.445313-22.527344-16h14.527344v-16h-16v-32h80v32h-16v16h14.527344c-3.378907 9.554687-12.394531 15.960937-22.527344 16zm144 120c-35.347656 0-64-28.652344-64-64 0-35.34375 28.652344-64 64-64s64 28.65625 64 64c-.039063 35.332031-28.671875 63.960937-64 64zm0 0" fill="url(#b)"/><path d="m446.152344 370.949219c-2.875-3.351563-7.917969-3.738281-11.273438-.871094l-49.527344 42.441406-18.875-25.167969c-2.648437-3.535156-7.664062-4.253906-11.199218-1.601562s-4.25 7.664062-1.597656 11.199219l24 32c1.328124 1.769531 3.324218 2.90625 5.523437 3.148437 2.195313.242188 4.394531-.4375 6.074219-1.875l56-48c3.351562-2.875 3.742187-7.917968.875-11.273437zm0 0" fill="url(#c)"/><path d="m53.734375 362.492188c-2.007813-2.078126-4.984375-2.910157-7.78125-2.179688s-4.980469 2.917969-5.710937 5.714844c-.734376 2.796875.101562 5.769531 2.179687 7.777344l26.34375 26.34375-26.34375 26.34375c-2.078125 2.011718-2.914063 4.984374-2.179687 7.78125.730468 2.796874 2.914062 4.980468 5.710937 5.714843 2.796875.730469 5.773437-.101562 7.78125-2.183593l26.34375-26.34375 26.34375 26.34375c3.140625 3.03125 8.128906 2.988281 11.214844-.097657 3.085937-3.085937 3.128906-8.074219.097656-11.214843l-26.34375-26.34375 26.34375-26.34375c3.03125-3.136719 2.988281-8.128907-.097656-11.214844-3.085938-3.085938-8.074219-3.128906-11.214844-.097656l-26.34375 26.34375zm0 0" fill="url(#d)"/></svg>