<svg height="487pt" viewBox="-2 0 487 487.728" width="487pt" xmlns="http://www.w3.org/2000/svg" xmlns:xlink="http://www.w3.org/1999/xlink"><linearGradient id="a"><stop offset="0" stop-color="#00efd1"/><stop offset="1" stop-color="#00acea"/></linearGradient><linearGradient id="b" gradientTransform="matrix(1 0 0 -1 -13.639493 501.864)" gradientUnits="userSpaceOnUse" x1="93.918" x2="93.918" xlink:href="#a" y1="490" y2="25.931"/><linearGradient id="c" gradientTransform="matrix(1 0 0 -1 -13.639493 501.864)" gradientUnits="userSpaceOnUse" x1="415.737" x2="415.737" xlink:href="#a" y1="490" y2="25.931"/><linearGradient id="d" gradientTransform="matrix(1 0 0 -1 -13.639493 501.864)" gradientUnits="userSpaceOnUse" x1="255.999" x2="255.999" xlink:href="#a" y1="490" y2="25.931"/><linearGradient id="e" gradientTransform="matrix(1 0 0 -1 -13.639493 501.864)" gradientUnits="userSpaceOnUse" x1="254.828" x2="254.828" xlink:href="#a" y1="490" y2="25.931"/><linearGradient id="f" gradientTransform="matrix(1 0 0 -1 -13.639493 501.864)" gradientUnits="userSpaceOnUse" x1="256" x2="256" xlink:href="#a" y1="490" y2="25.931"/><path d="m80.277344 372.996094c22.375-.023438 40.503906-18.152344 40.527344-40.523438v-13.410156c0-22.382812-18.144532-40.527344-40.527344-40.527344-22.382813 0-40.527344 18.144532-40.527344 40.527344v13.414062c.027344 22.367188 18.15625 40.496094 40.527344 40.519532zm-26.527344-53.933594c0-14.648438 11.878906-26.527344 26.527344-26.527344 14.652344 0 26.527344 11.878906 26.527344 26.527344v13.414062c0 14.648438-11.875 26.527344-26.527344 26.527344-14.648438 0-26.527344-11.878906-26.527344-26.527344zm0 0" fill="url(#b)"/><path d="m361.570312 319.0625v13.414062c0 22.382813 18.144532 40.527344 40.527344 40.527344 22.382813 0 40.527344-18.144531 40.527344-40.527344v-13.414062c0-22.382812-18.144531-40.527344-40.527344-40.527344-22.382812 0-40.527344 18.144532-40.527344 40.527344zm14 0c0-14.648438 11.875-26.527344 26.527344-26.527344 14.648438 0 26.527344 11.878906 26.527344 26.527344v13.414062c-.015625 14.640626-11.882812 26.507813-26.527344 26.527344-14.644531-.019531-26.511718-11.886718-26.527344-26.527344zm0 0" fill="url(#c)"/><path d="m442.527344 373.683594h-8.46875c-2.917969 0-5.53125 1.8125-6.554688 4.546875l-8.125 21.726562-6.527344-11.65625c-1.238281-2.210937-3.570312-3.578125-6.105468-3.578125h-7.988282c-2.613281 0-5.011718 1.457032-6.214843 3.777344l-5.34375 10.316406-7.011719-20.402344c-.96875-2.824218-3.628906-4.722656-6.617188-4.722656h-9.546874c-11.761719-.003906-22.984376 4.949219-30.910157 13.640625-7.929687 8.691407-11.832031 20.316407-10.753906 32.03125v25.722657l-46.632813-34.230469c3.769532-9.828125 3.007813-20.816407-2.074218-30.03125-5.082032-9.214844-13.96875-15.71875-24.292969-17.777344v-55.308594c0-3.863281-3.132813-7-7-7-3.863281 0-7 3.136719-7 7v55.308594c-10.324219 2.058594-19.214844 8.5625-24.296875 17.785156-5.082031 9.21875-5.835938 20.210938-2.0625 30.035157l-46.640625 34.226562v-25.730469c1.082031-11.714843-2.816406-23.339843-10.742187-32.035156-7.925782-8.691406-19.144532-13.644531-30.910157-13.648437h-8.464843c-2.921876 0-5.535157 1.8125-6.558594 4.550781l-8.125 21.726562-6.523438-11.65625c-1.238281-2.210937-3.574218-3.578125-6.109375-3.578125h-7.984375c-2.617187 0-5.015625 1.457032-6.21875 3.777344l-5.34375 10.3125-7.011718-20.398438c-.972657-2.828124-3.628907-4.726562-6.621094-4.726562h-9.542969c-11.765625 0-22.984375 4.953125-30.914063 13.644531-7.925781 8.691407-11.828124 20.316407-10.75 32.03125v61.363281c0 3.863282 3.136719 7 7 7l147.820313-.015624c3.867187 0 7-3.136719 7-7v-18.253907l54.152344-39.738281c6.730469 7.089844 16.078125 11.101562 25.855469 11.101562 9.777343-.003906 19.121093-4.019531 25.851562-11.109374l54.140625 39.746093v18.269531c0 3.867188 3.136719 7 7 7l147.820313-.015624c3.863281 0 7-3.136719 7-7v-61.347657c1.082031-11.714843-2.816407-23.339843-10.742188-32.035156-7.925781-8.691406-19.148438-13.644531-30.910156-13.644531zm-294.128906 44.636718c-.027344.238282-.039063.472657-.039063.707032v54.683594l-133.816406.015624v-54.699218c0-.238282-.011719-.472656-.039063-.707032-.789062-7.832031 1.769532-15.632812 7.046875-21.46875 5.28125-5.839843 12.785157-9.171874 20.65625-9.167968h4.546875l10.699219 31.140625c.878906 2.554687 3.144531 4.375 5.828125 4.683593 2.683594.304688 5.304688-.960937 6.730469-3.25.101562-.160156.195312-.324218.28125-.492187l10.726562-20.699219 11.707031 20.90625c1.332032 2.378906 3.921876 3.765625 6.640626 3.558594s5.066406-1.972656 6.023437-4.527344l11.707031-31.320312h3.613282c7.867187.003906 15.367187 3.335937 20.644531 9.171875 5.277343 5.839843 7.835937 13.636719 7.042969 21.464843zm93.960937 1.5c-11.945313-.070312-21.59375-9.769531-21.601563-21.714843-.007812-11.945313 9.625-21.660157 21.570313-21.75h.0625c11.949219.089843 21.582031 9.804687 21.574219 21.75-.007813 11.945312-9.660156 21.644531-21.605469 21.714843zm227.855469-1.5c-.023438.238282-.035156.472657-.035156.707032v54.683594l-133.820313.015624v-54.699218c0-.238282-.011719-.472656-.035156-.707032-.792969-7.832031 1.769531-15.632812 7.046875-21.46875 5.277344-5.839843 12.78125-9.171874 20.652344-9.167968h4.550781l10.699219 31.140625c.875 2.554687 3.144531 4.375 5.828124 4.683593 2.683594.304688 5.300782-.960937 6.730469-3.25.101563-.160156.195313-.324218.28125-.492187l10.726563-20.699219 11.703125 20.90625c1.332031 2.378906 3.925781 3.765625 6.644531 3.558594 2.714844-.207031 5.066406-1.972656 6.019531-4.527344l11.710938-31.320312h3.609375c7.871094.003906 15.371094 3.335937 20.648437 9.171875 5.273438 5.839843 7.832031 13.636719 7.042969 21.464843zm0 0" fill="url(#d)"/><path d="m241.1875 153.128906c22.371094-.027344 40.503906-18.15625 40.527344-40.527344v-13.410156c-.109375-22.304687-18.222656-40.328125-40.527344-40.328125s-40.417969 18.023438-40.527344 40.328125v13.410156c.027344 22.371094 18.15625 40.5 40.527344 40.527344zm-26.527344-53.941406c0-14.648438 11.875-26.527344 26.527344-26.527344s26.527344 11.878906 26.527344 26.527344v13.414062c0 14.648438-11.875 26.527344-26.527344 26.527344s-26.527344-11.878906-26.527344-26.527344zm0 0" fill="url(#e)"/><path d="m102.359375 153.722656h15.085937c3.632813 63.773438 54.527344 114.675782 118.296876 118.316406v14.199219c0 3.867188 3.136718 7 7 7 3.867187 0 7-3.132812 7-7v-14.199219c63.773437-3.640624 114.667968-54.542968 118.300781-118.316406h14.316406c3.867187 0 7-3.132812 7-7 0-3.867187-3.132813-7-7-7h-14.320313c-3.652343-63.757812-54.542968-114.636718-118.300781-118.277344v-14.445312c0-3.867188-3.132812-7-7-7-3.863281 0-7 3.132812-7 7v14.445312c-63.757812 3.640626-114.644531 54.519532-118.296875 118.277344h-15.082031c-3.863281 0-7 3.132813-7 7 0 3.867188 3.136719 7 7 7zm73.054687 44.730469c-.789062-7.832031 1.769532-15.632813 7.046876-21.472656 5.28125-5.835938 12.785156-9.167969 20.65625-9.167969h4.542968l10.699219 31.144531c.886719 2.574219 3.183594 4.40625 5.890625 4.6875 2.710938.285157 5.335938-1.027343 6.738281-3.363281.074219-.125.144531-.253906.210938-.382812l10.726562-20.699219 11.707031 20.90625c1.332032 2.378906 3.921876 3.765625 6.640626 3.558593 2.71875-.207031 5.066406-1.972656 6.023437-4.527343l11.710937-31.320313h3.609376c7.867187 0 15.367187 3.332032 20.644531 9.171875 5.277343 5.839844 7.835937 13.636719 7.042969 21.464844-.023438.238281-.039063.472656-.039063.707031v37c-39.75 29.652344-94.324219 29.414063-133.816406-.578125v-36.417969c.003906-.238281-.007813-.476562-.035157-.710937zm67.328126-163.207031c44.648437-.023438 85 26.605468 102.539062 67.667968 17.539062 41.058594 8.875 88.625-22.011719 120.867188v-24.285156c1.082031-11.714844-2.816406-23.34375-10.742187-32.035156-7.925782-8.691407-19.144532-13.644532-30.910156-13.648438h-8.464844c-2.921875 0-5.535156 1.8125-6.558594 4.550781l-8.125 21.726563-6.523438-11.65625c-1.238281-2.210938-3.574218-3.582032-6.109374-3.582032h-7.988282c-2.613281 0-5.011718 1.457032-6.214844 3.78125l-5.34375 10.3125-7.007812-20.398437c-.972656-2.828125-3.632812-4.726563-6.621094-4.726563h-9.546875c-11.765625 0-22.984375 4.953126-30.914062 13.644532-7.925781 8.695312-11.828125 20.324218-10.746094 32.039062v23.460938c-30.425781-32.398438-38.691406-79.78125-21.027344-120.570313 17.660157-40.785156 57.871094-67.175781 102.320313-67.152343zm0 0" fill="url(#f)"/></svg>