<svg height="480pt" viewBox="-24 0 480 480" width="480pt" xmlns="http://www.w3.org/2000/svg" xmlns:xlink="http://www.w3.org/1999/xlink"><linearGradient id="a"><stop offset="0" stop-color="#e93e3a"/><stop offset=".35" stop-color="#ed683c"/><stop offset=".7" stop-color="#f3903f"/><stop offset="1" stop-color="#fdc70c"/></linearGradient><linearGradient id="b" gradientUnits="userSpaceOnUse" x1="216" x2="216" xlink:href="#a" y1="485.36" y2="-13.4"/><linearGradient id="c" gradientUnits="userSpaceOnUse" x1="184" x2="184" xlink:href="#a" y1="485.36" y2="-13.4"/><path d="m408 176c13.253906 0 24-10.746094 24-24v-48c0-13.253906-10.746094-24-24-24h-40v-56c0-13.253906-10.746094-24-24-24h-288c-30.914062.0351562-55.9648438 25.085938-56 56v368c.0351562 30.914062 25.085938 55.964844 56 56h304c4.417969 0 8-3.582031 8-8v-184h40c13.253906 0 24-10.746094 24-24v-48c0-13.253906-10.746094-24-24-24h-40v-16zm0-80c4.417969 0 8 3.582031 8 8v48c0 4.417969-3.582031 8-8 8h-40v-64zm-392-40c.027344-22.082031 17.917969-39.972656 40-40h288c4.417969 0 8 3.582031 8 8v344h-296c-15.066406-.003906-29.496094 6.085938-40 16.886719zm40 408c-22.089844 0-40-17.910156-40-40s17.910156-40 40-40h296v16h-296v16h296v16h-296v16h296v16zm352-256c4.417969 0 8 3.582031 8 8v48c0 4.417969-3.582031 8-8 8h-40v-64zm0 0" fill="url(#b)"/><path d="m120 320h128c4.417969 0 8-3.582031 8-8v-96c-.035156-27.824219-20.464844-51.417969-48-55.433594v-8.796875c10.03125-7.488281 15.957031-19.253906 16-31.769531v-16c0-22.089844-17.910156-40-40-40s-40 17.910156-40 40v16c.035156 12.523438 5.964844 24.300781 16 31.792969v8.800781c-27.527344 4.007812-47.953125 27.589844-48 55.40625v96c0 4.417969 3.582031 8 8 8zm64-176c-13.253906 0-24-10.746094-24-24v-.6875c11.457031-1.515625 22.367188-5.828125 31.769531-12.550781 4.851563 4.476562 10.316407 8.238281 16.230469 11.175781v2.0625c0 13.253906-10.746094 24-24 24zm0-64c11.253906.015625 20.988281 7.847656 23.40625 18.839844-3.429688-2.617188-6.6875-5.460938-9.75-8.503906-3.125-3.121094-8.1875-3.121094-11.3125 0-7.289062 6.757812-16.425781 11.191406-26.246094 12.726562.5-12.847656 11.042969-23.019531 23.902344-23.0625zm0 80c2.6875.003906 5.367188-.265625 8-.800781v8.800781c.019531 2.984375 1.714844 5.699219 4.382812 7.03125l-12.382812 18.570312-12.382812-18.554687c2.671874-1.332031 4.367187-4.058594 4.382812-7.046875v-8.800781c2.632812.535156 5.3125.804687 8 .800781zm-56 56c.054688-16.894531 10.730469-31.925781 26.664062-37.542969l22.679688 33.984375c1.484375 2.222656 3.980469 3.558594 6.65625 3.558594s5.171875-1.335938 6.65625-3.558594l22.679688-33.984375c15.933593 5.617188 26.609374 20.648438 26.664062 37.542969v88h-112zm0 0" fill="url(#c)"/></svg>