<?xml version="1.0" encoding="iso-8859-1"?>
<!-- Generator: Adobe Illustrator 19.0.0, SVG Export Plug-In . SVG Version: 6.00 Build 0)  -->
<svg version="1.1" id="Capa_1" xmlns="http://www.w3.org/2000/svg" xmlns:xlink="http://www.w3.org/1999/xlink" x="0px" y="0px"
	 viewBox="0 0 508 508" style="enable-background:new 0 0 508 508;" xml:space="preserve">
<g>
	<g>
		<path d="M106.5,0C65.8,0,32.8,33.1,32.8,73.7c0,40.6,33.1,73.8,73.7,73.8c40.7,0,73.7-33.1,73.7-73.7C180.2,33.2,147.2,0,106.5,0z
			 M106.5,131.2c-31.6,0-57.4-25.7-57.4-57.4c0.1-31.7,25.8-57.4,57.4-57.4c31.6,0,57.4,25.7,57.4,57.4
			C163.9,105.4,138.2,131.2,106.5,131.2z"/>
	</g>
</g>
<g>
	<g>
		<path d="M170.1,137.6c0,0-21.5,26.2-63.6,26.2c-43.2,0-63.6-26.2-63.6-26.2S0,157.6,0,204.8v155.7h32.8V508h147.5V360.5H213V204.8
			C213,157.8,170.1,137.6,170.1,137.6z M196.8,344.1h-0.2h-32.8v147.5h-49.2V376.9H98.2v114.7h-49V344.1H16.4V204.8
			c0-18.9,9.4-36.5,24.8-47.2c18.7,14.6,41.7,22.6,65.4,22.6c23.7,0,46.7-8,65.4-22.6c15.4,10.7,24.8,28.3,24.8,47.2V344.1z"/>
	</g>
</g>
<g>
	<g>
		<path d="M450.6,196.6c-31.6,0-57.4,25.7-57.4,57.4c0,31.6,25.7,57.4,57.4,57.4c31.6,0,57.4-25.7,57.4-57.4
			C508,222.4,482.3,196.6,450.6,196.6z M450.6,295c-22.6,0-41-18.4-41-41c0-22.6,18.4-41,41-41c22.6,0,41,18.4,41,41
			C491.6,276.6,473.2,295,450.6,295z"/>
	</g>
</g>
<g>
	<g>
		<path d="M450.6,360.5c-31.6,0-57.4,25.7-57.4,57.4c0,31.6,25.7,57.4,57.4,57.4c31.6,0,57.4-25.7,57.4-57.4
			C508,386.2,482.3,360.5,450.6,360.5z M450.6,458.8c-22.6,0-41-18.4-41-41c0-22.6,18.4-41,41-41c22.6,0,41,18.4,41,41
			C491.6,440.5,473.2,458.8,450.6,458.8z"/>
	</g>
</g>
<g>
	<g>
		<path d="M450.6,32.7c-31.6,0-57.4,25.7-57.4,57.4c0.1,31.7,25.8,57.4,57.4,57.4c31.6,0,57.4-25.7,57.4-57.4
			C508,58.5,482.3,32.7,450.6,32.7z M450.6,131.2c-22.6,0-41-18.4-41-41c0.1-22.7,18.5-41,41-41c22.6,0,41,18.4,41,41
			C491.6,112.8,473.2,131.2,450.6,131.2z"/>
	</g>
</g>
<g>
	<g>
		<polygon points="385.1,98.3 385.1,81.9 286.8,81.9 286.8,245.8 221.2,245.8 221.2,262.2 286.8,262.2 286.8,426.1 385.1,426.1 
			385.1,409.7 303.2,409.7 303.2,262.2 385.1,262.2 385.1,245.8 303.2,245.8 303.2,98.3 		"/>
	</g>
</g>
<g>
</g>
<g>
</g>
<g>
</g>
<g>
</g>
<g>
</g>
<g>
</g>
<g>
</g>
<g>
</g>
<g>
</g>
<g>
</g>
<g>
</g>
<g>
</g>
<g>
</g>
<g>
</g>
<g>
</g>
</svg>
